<svg width="24" height="26" viewBox="0 0 24 26" fill="none" xmlns="http://www.w3.org/2000/svg">
<path d="M11.038 2.33028H13.2678C13.4198 2.33028 13.5429 2.20914 13.5429 2.06016V0.270123C13.5429 0.120765 13.4198 0 13.2678 0H11.038C10.886 0 10.7629 0.121142 10.7629 0.270123V2.06016C10.7629 2.20914 10.886 2.33028 11.038 2.33028Z" fill="#0D60FD"/>
<path d="M10.1974 2.33028H12.4273C12.5793 2.33028 12.7023 2.20914 12.7023 2.06016V0.270123C12.7023 0.120765 12.5793 0 12.4273 0H10.1974C10.0454 0 9.92236 0.121142 9.92236 0.270123V2.06016C9.92236 2.20914 10.0454 2.33028 10.1974 2.33028Z" fill="#0080E1"/>
<path d="M21.2034 8.1263H21.2046L20.5669 7.2057C20.4736 7.06914 20.2801 7.04468 20.1548 7.15341L19.1415 8.033L19.9411 8.06912L19.0101 8.87798C18.8421 9.02358 18.8136 9.27564 18.953 9.44795C20.189 10.9705 20.8652 12.8659 20.8652 14.8278C20.8652 19.7913 16.5879 23.787 11.4828 23.4078C6.99713 23.0749 3.46069 19.3112 3.4405 14.8685C3.42031 10.5427 6.58193 6.94273 10.8531 6.31821V8.33134C7.54527 8.9758 5.10244 12.0299 5.48755 15.5592C5.83342 18.7277 8.50099 21.2363 11.7213 21.4364C15.6131 21.6784 18.8577 18.6201 18.8577 14.8278C18.8577 13.5167 18.4612 12.2451 17.7344 11.1646H17.7394L17.1017 10.244C17.0084 10.1075 16.8149 10.0826 16.6896 10.1914L15.6763 11.0709L16.4755 11.1071L15.5472 11.9065C15.3853 12.0461 15.3579 12.2835 15.4836 12.4554C16.2892 13.5581 16.5048 15.0257 15.9502 16.3805C15.4226 17.6686 14.2239 18.6058 12.8347 18.8278C10.2707 19.2378 8.04693 17.2842 8.04693 14.8275C8.04693 13.0404 9.22511 11.5224 10.8531 10.984V16.3323C10.8531 16.5599 11.0398 16.7443 11.2703 16.7443H13.0354C13.2659 16.7443 13.4525 16.5599 13.4525 16.3323V4.1181C13.4525 3.89049 13.2655 3.70614 13.0354 3.70614H11.0733V3.70576C11.0729 3.70576 11.0722 3.70614 11.0718 3.70614L10.8535 3.73172C5.07806 4.3822 0.763034 9.19325 0.841884 14.9836C0.919591 20.6919 5.44793 25.4977 11.2089 25.9616C17.8696 26.4981 23.4646 21.2957 23.4646 14.8275C23.4646 12.4009 22.6669 10.0529 21.2034 8.1263Z" fill="url(#paint0_linear_1_539)"/>
<path d="M19.4905 7.73084L18.1699 8.87792C18.0023 9.02352 17.9733 9.27558 18.1131 9.44789C19.3492 10.9704 20.0254 12.8658 20.0254 14.8278C20.0254 19.7912 15.748 23.787 10.643 23.4078C6.1573 23.0748 2.62086 19.3111 2.60029 14.8684C2.5801 10.5427 5.74172 6.94267 10.0129 6.31815V8.33128C6.70506 8.97574 4.26223 12.0299 4.64734 15.5591C4.99322 18.7276 7.66078 21.2366 10.8811 21.4368C14.7729 21.6787 18.0175 18.6204 18.0175 14.8278C18.0175 13.376 17.5353 11.9697 16.6516 10.8215C16.5045 10.6303 16.2242 10.6002 16.041 10.7579L14.7066 11.9072C14.5447 12.0464 14.5173 12.2842 14.643 12.4561C15.4486 13.5588 15.6642 15.0264 15.1096 16.3812C14.582 17.6693 13.3833 18.6065 11.9945 18.8285C9.43052 19.2385 7.20672 17.2848 7.20672 14.8282C7.20672 13.0411 8.3849 11.5231 10.0129 10.9847V16.333C10.0129 16.5606 10.1996 16.745 10.43 16.745H12.1948C12.4253 16.745 12.6119 16.5606 12.6119 16.333V4.11804C12.6119 3.89043 12.4253 3.70608 12.1948 3.70608C11.9046 3.70608 11.6147 3.70608 11.3244 3.70608C10.7694 3.70608 10.219 3.69705 9.66859 3.77568C9.25187 3.83512 8.83819 3.91714 8.43061 4.02172C8.03027 4.12406 7.63564 4.24821 7.24901 4.39343C6.86771 4.53676 6.49441 4.70042 6.13101 4.88364C5.77143 5.06497 5.42175 5.26587 5.08387 5.48445C4.74829 5.70153 4.42451 5.93666 4.11444 6.18798C3.80552 6.43854 3.50992 6.70527 3.22957 6.98706C2.94959 7.26847 2.68486 7.56455 2.4365 7.8738C2.18814 8.18343 1.95616 8.5066 1.74247 8.84068C1.52763 9.17626 1.33146 9.52351 1.15433 9.87978C0.976062 10.2391 0.81722 10.6078 0.679328 10.9836C0.539531 11.364 0.421066 11.7518 0.324313 12.1446C0.226036 12.5438 0.149853 12.9478 0.0961435 13.3553C0.0416723 13.7706 0.0104372 14.189 0.00205702 14.6077C-0.000228486 14.733 -0.000609502 14.8586 0.000914166 14.9839C0.0786213 20.6919 4.60697 25.498 10.368 25.9619C17.0291 26.4984 22.6236 21.2961 22.6236 14.8278C22.6236 12.2514 21.725 9.76316 20.0844 7.77448C19.9377 7.59502 19.6661 7.57847 19.4905 7.73084Z" fill="url(#paint1_linear_1_539)"/>
<defs>
<linearGradient id="paint0_linear_1_539" x1="0.840969" y1="14.8527" x2="23.4646" y2="14.8527" gradientUnits="userSpaceOnUse">
<stop stop-color="#0057EE"/>
<stop offset="0.2911" stop-color="#0057EC"/>
<stop offset="0.4663" stop-color="#005BED"/>
<stop offset="0.6327" stop-color="#0066F0"/>
<stop offset="0.7957" stop-color="#0079F5"/>
<stop offset="0.9555" stop-color="#0094FD"/>
<stop offset="1" stop-color="#009DFF"/>
</linearGradient>
<linearGradient id="paint1_linear_1_539" x1="0.000853254" y1="14.8526" x2="22.6244" y2="14.8526" gradientUnits="userSpaceOnUse">
<stop stop-color="#009DFF"/>
<stop offset="1" stop-color="#0D60FD"/>
</linearGradient>
</defs>
</svg>
