<svg width="24" height="25" viewBox="0 0 24 25" fill="none" xmlns="http://www.w3.org/2000/svg">
<path d="M19.7899 4.24436C16.8299 1.29436 12.0299 1.29436 9.0899 4.24436C7.0199 6.29436 6.3999 9.24436 7.1999 11.8444L2.4999 16.5444C2.1699 16.8844 1.9399 17.5544 2.0099 18.0344L2.3099 20.2144C2.4199 20.9344 3.0899 21.6144 3.8099 21.7144L5.9899 22.0144C6.4699 22.0844 7.1399 21.8644 7.4799 21.5144L8.2999 20.6944C8.4999 20.5044 8.4999 20.1844 8.2999 19.9844L6.3599 18.0444C6.0699 17.7544 6.0699 17.2744 6.3599 16.9844C6.6499 16.6944 7.1299 16.6944 7.4199 16.9844L9.3699 18.9344C9.5599 19.1244 9.8799 19.1244 10.0699 18.9344L12.1899 16.8244C14.7799 17.6344 17.7299 17.0044 19.7899 14.9544C22.7399 12.0044 22.7399 7.19436 19.7899 4.24436ZM14.4999 12.0244C13.1199 12.0244 11.9999 10.9044 11.9999 9.52436C11.9999 8.14436 13.1199 7.02436 14.4999 7.02436C15.8799 7.02436 16.9999 8.14436 16.9999 9.52436C16.9999 10.9044 15.8799 12.0244 14.4999 12.0244Z" fill="url(#paint0_linear_1_818)"/>
<defs>
<linearGradient id="paint0_linear_1_818" x1="18.8498" y1="3.66573" x2="9.66845" y2="20.7326" gradientUnits="userSpaceOnUse">
<stop stop-color="#2254F5"/>
<stop offset="1" stop-color="#1890FF"/>
</linearGradient>
</defs>
</svg>
