<svg width="29" height="26" viewBox="0 0 29 26" fill="none" xmlns="http://www.w3.org/2000/svg">
<path d="M11.5998 11.5555C14.8032 11.5555 17.4 8.96878 17.4 5.77772C17.4 2.58679 14.8032 0 11.5998 0C8.39658 0 5.7998 2.58679 5.7998 5.77772C5.7998 8.96878 8.39658 11.5555 11.5998 11.5555Z" fill="url(#paint0_linear_1_506)"/>
<path d="M12.1076 14.4589C8.14914 14.3145 0 16.2789 0 20.2223V23.1112H13.8332C10.2516 19.1245 12.0496 14.6034 12.1076 14.4589Z" fill="url(#paint1_linear_1_506)"/>
<path d="M25.2736 20.251C25.7956 19.3988 26.1001 18.4022 26.1001 17.3333C26.1001 14.141 23.5046 11.5555 20.3 11.5555C17.0955 11.5555 14.5 14.141 14.5 17.3333C14.5 20.5255 17.0955 23.111 20.3 23.111C21.373 23.111 22.3736 22.7933 23.2291 22.2877L26.9557 25.9999L29.0001 23.9632L25.2736 20.251ZM20.3 20.2221C18.705 20.2221 17.4 18.9222 17.4 17.3333C17.4 15.7444 18.705 14.4443 20.3 14.4443C21.895 14.4443 23.2001 15.7444 23.2001 17.3333C23.2001 18.9222 21.895 20.2221 20.3 20.2221Z" fill="url(#paint2_linear_1_506)"/>
<defs>
<linearGradient id="paint0_linear_1_506" x1="15.5719" y1="0.944226" x2="10.2758" y2="10.8222" gradientUnits="userSpaceOnUse">
<stop stop-color="#2254F5"/>
<stop offset="1" stop-color="#1890FF"/>
</linearGradient>
<linearGradient id="paint1_linear_1_506" x1="11.6533" y1="15.1591" x2="8.76955" y2="23.7179" gradientUnits="userSpaceOnUse">
<stop stop-color="#2254F5"/>
<stop offset="1" stop-color="#1890FF"/>
</linearGradient>
<linearGradient id="paint2_linear_1_506" x1="26.7151" y1="12.7358" x2="20.0949" y2="25.0832" gradientUnits="userSpaceOnUse">
<stop stop-color="#2254F5"/>
<stop offset="1" stop-color="#1890FF"/>
</linearGradient>
</defs>
</svg>
