<svg width="24" height="25" viewBox="0 0 24 25" fill="none" xmlns="http://www.w3.org/2000/svg">
<path d="M22 19.0244V22.0244H2V19.0244C2 18.4744 2.45 18.0244 3 18.0244H21C21.55 18.0244 22 18.4744 22 19.0244Z" fill="url(#paint0_linear_1_713)" stroke="url(#paint1_linear_1_713)" stroke-width="1.5" stroke-miterlimit="10" stroke-linecap="round" stroke-linejoin="round"/>
<path d="M5.5 17.5244V11.5244H6.5V17.5244H5.5Z" fill="url(#paint2_linear_1_713)" stroke="url(#paint3_linear_1_713)"/>
<path d="M9.5 17.5244V11.5244H10.5V17.5244H9.5Z" fill="url(#paint4_linear_1_713)" stroke="url(#paint5_linear_1_713)"/>
<path d="M13.5 17.5244V11.5244H14.5V17.5244H13.5Z" fill="url(#paint6_linear_1_713)" stroke="url(#paint7_linear_1_713)"/>
<path d="M17.5 17.5244V11.5244H18.5V17.5244H17.5Z" fill="url(#paint8_linear_1_713)" stroke="url(#paint9_linear_1_713)"/>
<path d="M23 22.2744H1C0.866142 22.2744 0.75 22.1582 0.75 22.0244C0.75 21.8905 0.866142 21.7744 1 21.7744H23C23.1339 21.7744 23.25 21.8905 23.25 22.0244C23.25 22.1582 23.1339 22.2744 23 22.2744Z" fill="url(#paint10_linear_1_713)" stroke="url(#paint11_linear_1_713)"/>
<path d="M12.1843 2.63862L21.1843 6.23862C21.2504 6.26504 21.3341 6.32933 21.4026 6.43028C21.4711 6.53114 21.5 6.63252 21.5 6.70438V10.0244C21.5 10.2982 21.2739 10.5244 21 10.5244H3C2.72614 10.5244 2.5 10.2982 2.5 10.0244V6.70438C2.5 6.63252 2.52889 6.53114 2.59739 6.43028C2.66594 6.32933 2.74964 6.26504 2.8157 6.23862L11.8157 2.63862C11.8375 2.62988 11.9042 2.61438 12 2.61438C12.0958 2.61438 12.1625 2.62988 12.1843 2.63862ZM10 7.02438C10 8.13052 10.8939 9.02438 12 9.02438C13.1061 9.02438 14 8.13052 14 7.02438C14 5.91824 13.1061 5.02438 12 5.02438C10.8939 5.02438 10 5.91824 10 7.02438Z" fill="url(#paint12_linear_1_713)" stroke="url(#paint13_linear_1_713)"/>
<defs>
<linearGradient id="paint0_linear_1_713" x1="18.8482" y1="18.3512" x2="18.3798" y2="22.703" gradientUnits="userSpaceOnUse">
<stop stop-color="#2254F5"/>
<stop offset="1" stop-color="#1890FF"/>
</linearGradient>
<linearGradient id="paint1_linear_1_713" x1="18.8482" y1="18.3512" x2="18.3798" y2="22.703" gradientUnits="userSpaceOnUse">
<stop stop-color="#2254F5"/>
<stop offset="1" stop-color="#1890FF"/>
</linearGradient>
<linearGradient id="paint2_linear_1_713" x1="6.68482" y1="11.5963" x2="3.49432" y2="13.29" gradientUnits="userSpaceOnUse">
<stop stop-color="#2254F5"/>
<stop offset="1" stop-color="#1890FF"/>
</linearGradient>
<linearGradient id="paint3_linear_1_713" x1="6.68482" y1="11.5963" x2="3.49432" y2="13.29" gradientUnits="userSpaceOnUse">
<stop stop-color="#2254F5"/>
<stop offset="1" stop-color="#1890FF"/>
</linearGradient>
<linearGradient id="paint4_linear_1_713" x1="10.6848" y1="11.5963" x2="7.49432" y2="13.29" gradientUnits="userSpaceOnUse">
<stop stop-color="#2254F5"/>
<stop offset="1" stop-color="#1890FF"/>
</linearGradient>
<linearGradient id="paint5_linear_1_713" x1="10.6848" y1="11.5963" x2="7.49432" y2="13.29" gradientUnits="userSpaceOnUse">
<stop stop-color="#2254F5"/>
<stop offset="1" stop-color="#1890FF"/>
</linearGradient>
<linearGradient id="paint6_linear_1_713" x1="14.6848" y1="11.5963" x2="11.4943" y2="13.29" gradientUnits="userSpaceOnUse">
<stop stop-color="#2254F5"/>
<stop offset="1" stop-color="#1890FF"/>
</linearGradient>
<linearGradient id="paint7_linear_1_713" x1="14.6848" y1="11.5963" x2="11.4943" y2="13.29" gradientUnits="userSpaceOnUse">
<stop stop-color="#2254F5"/>
<stop offset="1" stop-color="#1890FF"/>
</linearGradient>
<linearGradient id="paint8_linear_1_713" x1="18.6848" y1="11.5963" x2="15.4943" y2="13.29" gradientUnits="userSpaceOnUse">
<stop stop-color="#2254F5"/>
<stop offset="1" stop-color="#1890FF"/>
</linearGradient>
<linearGradient id="paint9_linear_1_713" x1="18.6848" y1="11.5963" x2="15.4943" y2="13.29" gradientUnits="userSpaceOnUse">
<stop stop-color="#2254F5"/>
<stop offset="1" stop-color="#1890FF"/>
</linearGradient>
<linearGradient id="paint10_linear_1_713" x1="20.0467" y1="21.3969" x2="19.99" y2="23.0458" gradientUnits="userSpaceOnUse">
<stop stop-color="#2254F5"/>
<stop offset="1" stop-color="#1890FF"/>
</linearGradient>
<linearGradient id="paint11_linear_1_713" x1="20.0467" y1="21.3969" x2="19.99" y2="23.0458" gradientUnits="userSpaceOnUse">
<stop stop-color="#2254F5"/>
<stop offset="1" stop-color="#1890FF"/>
</linearGradient>
<linearGradient id="paint12_linear_1_713" x1="18.8482" y1="2.84243" x2="16.6248" y2="12.1153" gradientUnits="userSpaceOnUse">
<stop stop-color="#2254F5"/>
<stop offset="1" stop-color="#1890FF"/>
</linearGradient>
<linearGradient id="paint13_linear_1_713" x1="18.8482" y1="2.84243" x2="16.6248" y2="12.1153" gradientUnits="userSpaceOnUse">
<stop stop-color="#2254F5"/>
<stop offset="1" stop-color="#1890FF"/>
</linearGradient>
</defs>
</svg>
