<svg width="26" height="26" viewBox="0 0 26 26" fill="none" xmlns="http://www.w3.org/2000/svg">
<path d="M9.64778 18.582V17.4077L10.0492 16.9914C11.7438 18.4482 13.9439 19.3253 16.3373 19.3253C21.6741 19.3253 26 14.9994 26 9.66267C26 4.32588 21.6741 0 16.3373 0C11.0005 0 6.67462 4.32588 6.67462 9.66267C6.67462 12.0561 7.55174 14.2562 9.00855 15.9508L8.5923 16.3522H7.41791L0 23.785L2.21497 26L9.64778 18.582ZM9.64778 9.66267C9.64778 5.96114 12.6358 2.97312 16.3373 2.97312C20.0388 2.97312 23.0268 5.96114 23.0268 9.66267C23.0268 13.3642 20.0388 16.3522 16.3373 16.3522C12.6358 16.3522 9.64778 13.3642 9.64778 9.66267ZM20.0537 10.406V8.91938H17.0806V5.94621H15.594V8.91938H12.6209V10.406H15.594V13.379H17.0806V10.406H20.0537Z" fill="url(#paint0_linear_1_626)"/>
<defs>
<linearGradient id="paint0_linear_1_626" x1="21.9027" y1="2.12451" x2="9.96107" y2="24.3117" gradientUnits="userSpaceOnUse">
<stop stop-color="#2254F5"/>
<stop offset="1" stop-color="#1890FF"/>
</linearGradient>
</defs>
</svg>
