<svg width="24" height="25" viewBox="0 0 24 25" fill="none" xmlns="http://www.w3.org/2000/svg">
<path d="M20.1 9.24435C18.29 9.24435 17.55 7.96435 18.45 6.39435C18.97 5.48435 18.66 4.32435 17.75 3.80435L16.02 2.81435C15.23 2.34435 14.21 2.62435 13.74 3.41435L13.63 3.60435C12.73 5.17435 11.25 5.17435 10.34 3.60435L10.23 3.41435C9.78 2.62435 8.76 2.34435 7.97 2.81435L6.24 3.80435C5.33 4.32435 5.02 5.49435 5.54 6.40435C6.45 7.96435 5.71 9.24435 3.9 9.24435C2.86 9.24435 2 10.0943 2 11.1444V12.9044C2 13.9444 2.85 14.8043 3.9 14.8043C5.71 14.8043 6.45 16.0843 5.54 17.6543C5.02 18.5643 5.33 19.7243 6.24 20.2444L7.97 21.2344C8.76 21.7043 9.78 21.4244 10.25 20.6344L10.36 20.4444C11.26 18.8744 12.74 18.8744 13.65 20.4444L13.76 20.6344C14.23 21.4244 15.25 21.7043 16.04 21.2344L17.77 20.2444C18.68 19.7243 18.99 18.5543 18.47 17.6543C17.56 16.0843 18.3 14.8043 20.11 14.8043C21.15 14.8043 22.01 13.9544 22.01 12.9044V11.1444C22 10.1044 21.15 9.24435 20.1 9.24435ZM12 15.2744C10.21 15.2744 8.75 13.8144 8.75 12.0244C8.75 10.2344 10.21 8.77435 12 8.77435C13.79 8.77435 15.25 10.2344 15.25 12.0244C15.25 13.8144 13.79 15.2744 12 15.2744Z" fill="url(#paint0_linear_1_827)"/>
<defs>
<linearGradient id="paint0_linear_1_827" x1="18.8567" y1="4.12799" x2="10.4696" y2="20.6454" gradientUnits="userSpaceOnUse">
<stop stop-color="#2254F5"/>
<stop offset="1" stop-color="#1890FF"/>
</linearGradient>
</defs>
</svg>
