<svg width="24" height="25" viewBox="0 0 24 25" fill="none" xmlns="http://www.w3.org/2000/svg">
<path d="M18.3301 5.69435L6.59008 17.4344C6.15008 17.8744 5.41008 17.8144 5.05008 17.2944C3.81008 15.4844 3.08008 13.3444 3.08008 11.1444V6.75435C3.08008 5.93435 3.70008 5.00435 4.46008 4.69435L10.0301 2.41435C11.2901 1.89435 12.6901 1.89435 13.9501 2.41435L18.0001 4.06435C18.6601 4.33435 18.8301 5.19435 18.3301 5.69435Z" fill="url(#paint0_linear_1_761)"/>
<path d="M19.27 7.06435C19.92 6.51435 20.91 6.98435 20.91 7.83435V11.1444C20.91 16.0344 17.36 20.6144 12.51 21.9544C12.18 22.0444 11.82 22.0444 11.48 21.9544C10.06 21.5544 8.74001 20.8844 7.61001 20.0044C7.13001 19.6344 7.08001 18.9344 7.50001 18.5044C9.68001 16.2744 16.06 9.77435 19.27 7.06435Z" fill="url(#paint1_linear_1_761)"/>
<defs>
<linearGradient id="paint0_linear_1_761" x1="16.1712" y1="3.30755" x2="8.9169" y2="16.645" gradientUnits="userSpaceOnUse">
<stop stop-color="#2254F5"/>
<stop offset="1" stop-color="#1890FF"/>
</linearGradient>
<linearGradient id="paint1_linear_1_761" x1="18.7518" y1="8.06902" x2="11.3909" y2="20.3958" gradientUnits="userSpaceOnUse">
<stop stop-color="#2254F5"/>
<stop offset="1" stop-color="#1890FF"/>
</linearGradient>
</defs>
</svg>
