<svg width="27" height="26" viewBox="0 0 27 26" fill="none" xmlns="http://www.w3.org/2000/svg">
<path d="M8.41451 4.44271H12.6362C12.9238 4.44271 13.1569 4.21203 13.1569 3.92757V0.51514C13.1569 0.230677 12.9238 0 12.6362 0H8.41451C8.12692 0 7.8938 0.230677 7.8938 0.51514V3.92719C7.8938 4.21165 8.12692 4.44271 8.41451 4.44271Z" fill="url(#paint0_linear_1_515)"/>
<path d="M13.227 6.1253V12.5206L12.0035 13.7191L8.31774 17.3292L7.96387 16.9773V6.1253C7.96387 6.04462 8.02291 5.97492 8.10024 5.96394C8.11128 5.95674 8.12233 5.95674 8.13338 5.95674H13.0537C13.1497 5.95674 13.227 6.03363 13.227 6.1253Z" fill="#0057EE"/>
<path d="M12.0034 6.13625V13.719L8.31761 17.3292L7.96374 16.9773L6.74023 15.7607V6.13625C6.74023 6.0408 6.81375 5.96391 6.90974 5.96391H11.8301C11.926 5.96391 12.0034 6.04118 12.0034 6.13625Z" fill="url(#paint1_linear_1_515)"/>
<path d="M7.25948 4.44271H11.4812C11.7688 4.44271 12.0019 4.21203 12.0019 3.92757V0.51514C12.0019 0.230677 11.7688 0 11.4812 0H7.25948C6.97189 0 6.73877 0.230677 6.73877 0.51514V3.92719C6.73877 4.21165 6.97189 4.44271 7.25948 4.44271Z" fill="url(#paint2_linear_1_515)"/>
<path d="M8.60828 25.7496L1.06498 18.249C0.831856 18.0172 0.831856 17.641 1.06498 17.4088L3.77977 14.7089C4.0129 14.4771 4.39115 14.4771 4.62465 14.7089L9.21622 19.2747L22.615 5.95113C22.8481 5.71931 23.2264 5.71931 23.4599 5.95113L26.1747 8.65107C26.4078 8.88288 26.4078 9.25901 26.1747 9.4912L9.82455 25.7496C9.48858 26.0836 8.94387 26.0836 8.60828 25.7496Z" fill="url(#paint3_linear_1_515)"/>
<path d="M7.71776 24.8722L0.174841 17.3716C-0.0582803 17.1398 -0.0582803 16.7637 0.174841 16.5315L2.89002 13.8319C3.12314 13.6001 3.50139 13.6001 3.73489 13.8319L8.32647 18.3978L21.7252 5.07418C21.9584 4.84237 22.3366 4.84237 22.5701 5.07418L25.2849 7.77412C25.518 8.00594 25.518 8.38206 25.2849 8.61426L8.93403 24.8722C8.59844 25.2063 8.05373 25.2063 7.71776 24.8722Z" fill="url(#paint4_linear_1_515)"/>
<defs>
<linearGradient id="paint0_linear_1_515" x1="10.5255" y1="0.0001553" x2="10.5255" y2="4.44252" gradientUnits="userSpaceOnUse">
<stop offset="0.00253296" stop-color="#008DFF"/>
<stop offset="0.4715" stop-color="#0076F8"/>
<stop offset="1" stop-color="#0057EE"/>
</linearGradient>
<linearGradient id="paint1_linear_1_515" x1="6.74021" y1="11.6467" x2="12.0034" y2="11.6467" gradientUnits="userSpaceOnUse">
<stop stop-color="#009DFF"/>
<stop offset="1" stop-color="#0D60FD"/>
</linearGradient>
<linearGradient id="paint2_linear_1_515" x1="9.37045" y1="0.0001553" x2="9.37045" y2="4.44252" gradientUnits="userSpaceOnUse">
<stop stop-color="#009DFF"/>
<stop offset="1" stop-color="#0D60FD"/>
</linearGradient>
<linearGradient id="paint3_linear_1_515" x1="0.890201" y1="15.8888" x2="26.3496" y2="15.8888" gradientUnits="userSpaceOnUse">
<stop stop-color="#0057EE"/>
<stop offset="0.2911" stop-color="#0057EC"/>
<stop offset="0.4663" stop-color="#005BED"/>
<stop offset="0.6327" stop-color="#0066F0"/>
<stop offset="0.7957" stop-color="#0079F5"/>
<stop offset="0.9555" stop-color="#0094FD"/>
<stop offset="1" stop-color="#009DFF"/>
</linearGradient>
<linearGradient id="paint4_linear_1_515" x1="-6.09468e-05" y1="15.0115" x2="25.4593" y2="15.0115" gradientUnits="userSpaceOnUse">
<stop stop-color="#009DFF"/>
<stop offset="1" stop-color="#0D60FD"/>
</linearGradient>
</defs>
</svg>
