<svg width="24" height="25" viewBox="0 0 24 25" fill="none" xmlns="http://www.w3.org/2000/svg">
<path d="M22 21.2744H21V15.0244C21 10.0544 16.97 6.02435 12 6.02435C7.03 6.02435 3 10.0544 3 15.0244V21.2744H2C1.59 21.2744 1.25 21.6144 1.25 22.0244C1.25 22.4344 1.59 22.7744 2 22.7744H22C22.41 22.7744 22.75 22.4344 22.75 22.0244C22.75 21.6144 22.41 21.2744 22 21.2744Z" fill="url(#paint0_linear_1_750)"/>
<path d="M12 3.77435C11.59 3.77435 11.25 3.43435 11.25 3.02435V2.02435C11.25 1.61435 11.59 1.27435 12 1.27435C12.41 1.27435 12.75 1.61435 12.75 2.02435V3.02435C12.75 3.43435 12.41 3.77435 12 3.77435Z" fill="url(#paint1_linear_1_750)"/>
<path d="M4.99994 5.77436C4.80994 5.77436 4.61994 5.70436 4.46994 5.55436L3.46994 4.55436C3.17994 4.26436 3.17994 3.78436 3.46994 3.49436C3.75994 3.20436 4.23994 3.20436 4.52994 3.49436L5.52994 4.49436C5.81994 4.78436 5.81994 5.26436 5.52994 5.55436C5.37994 5.70436 5.18994 5.77436 4.99994 5.77436Z" fill="url(#paint2_linear_1_750)"/>
<path d="M18.9999 5.77436C18.8099 5.77436 18.6199 5.70436 18.4699 5.55436C18.1799 5.26436 18.1799 4.78436 18.4699 4.49436L19.4699 3.49436C19.7599 3.20436 20.2399 3.20436 20.5299 3.49436C20.8199 3.78436 20.8199 4.26436 20.5299 4.55436L19.5299 5.55436C19.3799 5.70436 19.1899 5.77436 18.9999 5.77436Z" fill="url(#paint3_linear_1_750)"/>
<defs>
<linearGradient id="paint0_linear_1_750" x1="19.3619" y1="7.39303" x2="12.7879" y2="23.0708" gradientUnits="userSpaceOnUse">
<stop stop-color="#2254F5"/>
<stop offset="1" stop-color="#1890FF"/>
</linearGradient>
<linearGradient id="paint1_linear_1_750" x1="12.5136" y1="1.47863" x2="11.146" y2="3.00322" gradientUnits="userSpaceOnUse">
<stop stop-color="#2254F5"/>
<stop offset="1" stop-color="#1890FF"/>
</linearGradient>
<linearGradient id="paint2_linear_1_750" x1="5.35426" y1="3.48093" x2="4.20654" y2="5.61122" gradientUnits="userSpaceOnUse">
<stop stop-color="#2254F5"/>
<stop offset="1" stop-color="#1890FF"/>
</linearGradient>
<linearGradient id="paint3_linear_1_750" x1="20.3543" y1="3.48093" x2="19.2065" y2="5.61122" gradientUnits="userSpaceOnUse">
<stop stop-color="#2254F5"/>
<stop offset="1" stop-color="#1890FF"/>
</linearGradient>
</defs>
</svg>
