<svg width="27" height="30" viewBox="0 0 27 30" fill="none" xmlns="http://www.w3.org/2000/svg">
<path d="M25.621 10.554V19.446C25.621 20.902 24.841 22.254 23.58 22.995L15.858 27.454C14.597 28.182 13.037 28.182 11.763 27.454L4.041 22.995C2.78 22.267 2 20.915 2 19.446V10.554C2 9.09804 2.78 7.74601 4.041 7.00499L11.763 2.546C13.024 1.818 14.584 1.818 15.858 2.546L23.58 7.00499C24.841 7.74601 25.621 9.08506 25.621 10.554Z" stroke="url(#paint0_linear_1_633)" stroke-width="2.46316" stroke-linecap="round" stroke-linejoin="round"/>
<path d="M13.8174 13.6994C15.4902 13.6994 16.8464 12.3433 16.8464 10.6704C16.8464 8.99761 15.4902 7.64148 13.8174 7.64148C12.1445 7.64148 10.7883 8.99761 10.7883 10.6704C10.7883 12.3433 12.1445 13.6994 13.8174 13.6994Z" stroke="url(#paint1_linear_1_633)" stroke-width="2.46316" stroke-linecap="round" stroke-linejoin="round"/>
<path d="M19.0172 21.0572C19.0172 18.7172 16.6902 16.8193 13.8172 16.8193C10.9442 16.8193 8.61719 18.7172 8.61719 21.0572" stroke="url(#paint2_linear_1_633)" stroke-width="2.46316" stroke-linecap="round" stroke-linejoin="round"/>
<defs>
<linearGradient id="paint0_linear_1_633" x1="21.8986" y1="4.12451" x2="9.35053" y2="25.3051" gradientUnits="userSpaceOnUse">
<stop stop-color="#2254F5"/>
<stop offset="1" stop-color="#1890FF"/>
</linearGradient>
<linearGradient id="paint1_linear_1_633" x1="15.8917" y1="8.13649" x2="13.1093" y2="13.3061" gradientUnits="userSpaceOnUse">
<stop stop-color="#2254F5"/>
<stop offset="1" stop-color="#1890FF"/>
</linearGradient>
<linearGradient id="paint2_linear_1_633" x1="17.3783" y1="17.1656" x2="16.4023" y2="21.6156" gradientUnits="userSpaceOnUse">
<stop stop-color="#2254F5"/>
<stop offset="1" stop-color="#1890FF"/>
</linearGradient>
</defs>
</svg>
