<svg width="24" height="25" viewBox="0 0 24 25" fill="none" xmlns="http://www.w3.org/2000/svg">
<path d="M12 2.02435C6.48 2.02435 2 6.50435 2 12.0244C2 17.5444 6.48 22.0244 12 22.0244C17.52 22.0244 22 17.5444 22 12.0244C22 6.50435 17.52 2.02435 12 2.02435ZM17.85 14.1244C17.81 14.2144 17.76 14.2944 17.69 14.3644L14.65 17.4044C14.5 17.5544 14.31 17.6244 14.12 17.6244C13.93 17.6244 13.74 17.5544 13.59 17.4044C13.3 17.1144 13.3 16.6344 13.59 16.3444L15.35 14.5844H6.85C6.44 14.5844 6.1 14.2444 6.1 13.8344C6.1 13.4244 6.44 13.0844 6.85 13.0844H17.16C17.26 13.0844 17.35 13.1044 17.45 13.1444C17.63 13.2244 17.78 13.3644 17.86 13.5544C17.92 13.7344 17.92 13.9444 17.85 14.1244ZM17.15 10.9544H6.85C6.75 10.9544 6.65 10.9344 6.56 10.8944C6.38 10.8144 6.23 10.6744 6.15 10.4844C6.07 10.3044 6.07 10.0944 6.15 9.91435C6.19 9.82435 6.24 9.74435 6.31 9.67435L9.35 6.63435C9.64 6.34435 10.12 6.34435 10.41 6.63435C10.7 6.92435 10.7 7.40435 10.41 7.69435L8.66 9.45435H17.16C17.57 9.45435 17.91 9.79435 17.91 10.2044C17.91 10.6144 17.57 10.9544 17.15 10.9544Z" fill="url(#paint0_linear_1_780)"/>
<defs>
<linearGradient id="paint0_linear_1_780" x1="18.8482" y1="3.65859" x2="9.66234" y2="20.7257" gradientUnits="userSpaceOnUse">
<stop stop-color="#2254F5"/>
<stop offset="1" stop-color="#1890FF"/>
</linearGradient>
</defs>
</svg>
