<svg width="24" height="25" viewBox="0 0 24 25" fill="none" xmlns="http://www.w3.org/2000/svg">
<path d="M16.75 3.57221V2.01221C16.75 1.60221 16.41 1.26221 16 1.26221C15.59 1.26221 15.25 1.60221 15.25 2.01221V3.51221H8.74999V2.01221C8.74999 1.60221 8.40999 1.26221 7.99999 1.26221C7.58999 1.26221 7.24999 1.60221 7.24999 2.01221V3.57221C4.54999 3.82221 3.23999 5.43221 3.03999 7.82221C3.01999 8.11221 3.25999 8.35221 3.53999 8.35221H20.46C20.75 8.35221 20.99 8.10221 20.96 7.82221C20.76 5.43221 19.45 3.82221 16.75 3.57221Z" fill="url(#paint0_linear_1_683)"/>
<path d="M20 9.85223H4C3.45 9.85223 3 10.3022 3 10.8522V17.0122C3 20.0122 4.5 22.0122 8 22.0122H16C19.5 22.0122 21 20.0122 21 17.0122V10.8522C21 10.3022 20.55 9.85223 20 9.85223ZM9.21 18.2222C9.11 18.3122 9 18.3822 8.88 18.4322C8.76 18.4822 8.63 18.5122 8.5 18.5122C8.37 18.5122 8.24 18.4822 8.12 18.4322C8 18.3822 7.89 18.3122 7.79 18.2222C7.61 18.0322 7.5 17.7722 7.5 17.5122C7.5 17.2522 7.61 16.9922 7.79 16.8022C7.89 16.7122 8 16.6422 8.12 16.5922C8.36 16.4922 8.64 16.4922 8.88 16.5922C9 16.6422 9.11 16.7122 9.21 16.8022C9.39 16.9922 9.5 17.2522 9.5 17.5122C9.5 17.7722 9.39 18.0322 9.21 18.2222ZM9.42 14.3922C9.37 14.5122 9.3 14.6222 9.21 14.7222C9.11 14.8122 9 14.8822 8.88 14.9322C8.76 14.9822 8.63 15.0122 8.5 15.0122C8.37 15.0122 8.24 14.9822 8.12 14.9322C8 14.8822 7.89 14.8122 7.79 14.7222C7.7 14.6222 7.63 14.5122 7.58 14.3922C7.53 14.2722 7.5 14.1422 7.5 14.0122C7.5 13.8822 7.53 13.7522 7.58 13.6322C7.63 13.5122 7.7 13.4022 7.79 13.3022C7.89 13.2122 8 13.1422 8.12 13.0922C8.36 12.9922 8.64 12.9922 8.88 13.0922C9 13.1422 9.11 13.2122 9.21 13.3022C9.3 13.4022 9.37 13.5122 9.42 13.6322C9.47 13.7522 9.5 13.8822 9.5 14.0122C9.5 14.1422 9.47 14.2722 9.42 14.3922ZM12.71 14.7222C12.61 14.8122 12.5 14.8822 12.38 14.9322C12.26 14.9822 12.13 15.0122 12 15.0122C11.87 15.0122 11.74 14.9822 11.62 14.9322C11.5 14.8822 11.39 14.8122 11.29 14.7222C11.11 14.5322 11 14.2722 11 14.0122C11 13.7522 11.11 13.4922 11.29 13.3022C11.39 13.2122 11.5 13.1422 11.62 13.0922C11.86 12.9822 12.14 12.9822 12.38 13.0922C12.5 13.1422 12.61 13.2122 12.71 13.3022C12.89 13.4922 13 13.7522 13 14.0122C13 14.2722 12.89 14.5322 12.71 14.7222Z" fill="url(#paint1_linear_1_683)"/>
<defs>
<linearGradient id="paint0_linear_1_683" x1="18.138" y1="1.84155" x2="16.5487" y2="9.30614" gradientUnits="userSpaceOnUse">
<stop stop-color="#2254F5"/>
<stop offset="1" stop-color="#1890FF"/>
</linearGradient>
<linearGradient id="paint1_linear_1_683" x1="18.1634" y1="10.8459" x2="13.8656" y2="22.6659" gradientUnits="userSpaceOnUse">
<stop stop-color="#2254F5"/>
<stop offset="1" stop-color="#1890FF"/>
</linearGradient>
</defs>
</svg>
