<svg width="24" height="25" viewBox="0 0 24 25" fill="none" xmlns="http://www.w3.org/2000/svg">
<path d="M17.62 10.7743C17.19 10.7743 16.85 10.4243 16.85 10.0043C16.85 9.63433 16.48 8.86433 15.86 8.19433C15.25 7.54433 14.58 7.16433 14.02 7.16433C13.59 7.16433 13.25 6.81433 13.25 6.39433C13.25 5.97433 13.6 5.62433 14.02 5.62433C15.02 5.62433 16.07 6.16433 16.99 7.13433C17.85 8.04433 18.4 9.17433 18.4 9.99433C18.4 10.4243 18.05 10.7743 17.62 10.7743Z" fill="url(#paint0_linear_1_727)"/>
<path d="M21.23 10.7744C20.8 10.7744 20.46 10.4244 20.46 10.0044C20.46 6.45435 17.57 3.57435 14.03 3.57435C13.6 3.57435 13.26 3.22435 13.26 2.80435C13.26 2.38435 13.6 2.02435 14.02 2.02435C18.42 2.02435 22 5.60435 22 10.0044C22 10.4244 21.65 10.7744 21.23 10.7744Z" fill="url(#paint1_linear_1_727)"/>
<path d="M11.05 14.9744L9.2 16.8244C8.81 17.2144 8.19 17.2144 7.79 16.8344C7.68 16.7244 7.57 16.6244 7.46 16.5144C6.43 15.4744 5.5 14.3844 4.67 13.2444C3.85 12.1044 3.19 10.9644 2.71 9.83435C2.24 8.69435 2 7.60435 2 6.56435C2 5.88435 2.12 5.23435 2.36 4.63435C2.6 4.02435 2.98 3.46435 3.51 2.96435C4.15 2.33435 4.85 2.02435 5.59 2.02435C5.87 2.02435 6.15 2.08435 6.4 2.20435C6.66 2.32435 6.89 2.50435 7.07 2.76435L9.39 6.03435C9.57 6.28435 9.7 6.51435 9.79 6.73435C9.88 6.94435 9.93 7.15435 9.93 7.34435C9.93 7.58435 9.86 7.82435 9.72 8.05435C9.59 8.28435 9.4 8.52435 9.16 8.76435L8.4 9.55435C8.29 9.66435 8.24 9.79435 8.24 9.95435C8.24 10.0344 8.25 10.1044 8.27 10.1844C8.3 10.2644 8.33 10.3244 8.35 10.3844C8.53 10.7144 8.84 11.1444 9.28 11.6644C9.73 12.1844 10.21 12.7144 10.73 13.2444C10.83 13.3444 10.94 13.4444 11.04 13.5444C11.44 13.9344 11.45 14.5744 11.05 14.9744Z" fill="url(#paint2_linear_1_727)"/>
<path d="M21.9701 18.3543C21.9701 18.6343 21.9201 18.9243 21.8201 19.2043C21.7901 19.2843 21.7601 19.3643 21.7201 19.4443C21.5501 19.8043 21.3301 20.1443 21.0401 20.4643C20.5501 21.0043 20.0101 21.3943 19.4001 21.6443C19.3901 21.6443 19.3801 21.6543 19.3701 21.6543C18.7801 21.8943 18.1401 22.0243 17.4501 22.0243C16.4301 22.0243 15.3401 21.7843 14.1901 21.2943C13.0401 20.8043 11.8901 20.1443 10.7501 19.3143C10.3601 19.0243 9.9701 18.7343 9.6001 18.4243L12.8701 15.1543C13.1501 15.3643 13.4001 15.5243 13.6101 15.6343C13.6601 15.6543 13.7201 15.6843 13.7901 15.7143C13.8701 15.7443 13.9501 15.7543 14.0401 15.7543C14.2101 15.7543 14.3401 15.6943 14.4501 15.5843L15.2101 14.8343C15.4601 14.5843 15.7001 14.3943 15.9301 14.2743C16.1601 14.1343 16.3901 14.0643 16.6401 14.0643C16.8301 14.0643 17.0301 14.1043 17.2501 14.1943C17.4701 14.2843 17.7001 14.4143 17.9501 14.5843L21.2601 16.9343C21.5201 17.1143 21.7001 17.3243 21.8101 17.5743C21.9101 17.8243 21.9701 18.0743 21.9701 18.3543Z" fill="url(#paint3_linear_1_727)"/>
<defs>
<linearGradient id="paint0_linear_1_727" x1="17.5884" y1="6.04515" x2="15.2231" y2="10.4399" gradientUnits="userSpaceOnUse">
<stop stop-color="#2254F5"/>
<stop offset="1" stop-color="#1890FF"/>
</linearGradient>
<linearGradient id="paint1_linear_1_727" x1="20.6227" y1="2.73933" x2="16.6013" y2="10.2023" gradientUnits="userSpaceOnUse">
<stop stop-color="#2254F5"/>
<stop offset="1" stop-color="#1890FF"/>
</linearGradient>
<linearGradient id="paint2_linear_1_727" x1="9.87238" y1="3.25769" x2="1.6474" y2="12.7191" gradientUnits="userSpaceOnUse">
<stop stop-color="#2254F5"/>
<stop offset="1" stop-color="#1890FF"/>
</linearGradient>
<linearGradient id="paint3_linear_1_727" x1="20.0207" y1="14.7148" x2="17.3116" y2="22.5369" gradientUnits="userSpaceOnUse">
<stop stop-color="#2254F5"/>
<stop offset="1" stop-color="#1890FF"/>
</linearGradient>
</defs>
</svg>
