<svg width="25" height="25" viewBox="0 0 25 25" fill="none" xmlns="http://www.w3.org/2000/svg">
<path d="M15.0072 7.07914C15.0065 6.40914 14.6759 5.78947 14.1155 5.42004L10.1128 2.75411C9.44232 2.30479 8.56232 2.30568 7.89278 2.75636L3.8955 5.43042C3.34587 5.80098 3.0065 6.42133 3.00718 7.09133L3.01295 12.7713C3.01324 13.0513 3.23346 13.2711 3.51346 13.2708L14.5135 13.2596C14.7935 13.2594 15.0132 13.0391 15.0129 12.7591L15.0072 7.07914ZM9.01092 10.7652C8.05092 10.7662 7.26012 9.97701 7.25914 9.01701C7.25817 8.05701 8.04736 7.26621 9.00736 7.26523C9.96736 7.26426 10.7582 8.05345 10.7591 9.01345C10.7601 9.97345 9.97092 10.7643 9.01092 10.7652Z" fill="url(#paint0_linear_1_692)"/>
<path d="M22.0215 21.252L20.7515 21.2533L20.7484 18.2533C21.6981 17.9423 22.3872 17.0516 22.3862 16.0016L22.3841 14.0016C22.3828 12.6916 21.3117 11.6227 20.0017 11.624C18.6917 11.6254 17.6228 12.6964 17.6241 14.0064L17.6262 16.0064C17.6272 17.0464 18.3081 17.9258 19.2384 18.2448L19.2415 21.2548L15.0215 21.2591L15.0154 15.2591C15.0151 14.9791 14.7949 14.7593 14.5149 14.7596L3.5149 14.7708C3.2349 14.7711 3.01512 14.9913 3.0154 15.2713L3.0215 21.2713L2.0215 21.2723C1.6115 21.2727 1.27185 21.6131 1.27226 22.0231C1.27268 22.4331 1.61302 22.7727 2.02302 22.7723L19.953 22.7541C19.973 22.7541 19.983 22.7641 20.003 22.764C20.023 22.764 20.033 22.754 20.053 22.754L22.023 22.752C22.433 22.7516 22.7727 22.4112 22.7723 22.0012C22.7718 21.5912 22.4315 21.2516 22.0215 21.252ZM8.26845 18.266C8.26803 17.856 8.60769 17.5156 9.01769 17.5152C9.42769 17.5148 9.76803 17.8544 9.76845 18.2644L9.7715 21.2644L8.2715 21.266L8.26845 18.266Z" fill="url(#paint1_linear_1_692)"/>
<defs>
<linearGradient id="paint0_linear_1_692" x1="13.1123" y1="3.29993" x2="8.42548" y2="12.9579" gradientUnits="userSpaceOnUse">
<stop stop-color="#2254F5"/>
<stop offset="1" stop-color="#1890FF"/>
</linearGradient>
<linearGradient id="paint1_linear_1_692" x1="19.3745" y1="12.5349" x2="16.2137" y2="23.9137" gradientUnits="userSpaceOnUse">
<stop stop-color="#2254F5"/>
<stop offset="1" stop-color="#1890FF"/>
</linearGradient>
</defs>
</svg>
