<svg width="24" height="25" viewBox="0 0 24 25" fill="none" xmlns="http://www.w3.org/2000/svg">
<path d="M18.75 8.02435V10.1244C18.31 10.0644 17.81 10.0344 17.25 10.0244V8.02435C17.25 4.87435 16.36 2.77435 12 2.77435C7.64 2.77435 6.75 4.87435 6.75 8.02435V10.0244C6.19 10.0344 5.69 10.0644 5.25 10.1244V8.02435C5.25 5.12435 5.95 1.27435 12 1.27435C18.05 1.27435 18.75 5.12435 18.75 8.02435Z" fill="url(#paint0_linear_1_770)"/>
<path d="M18.75 10.1244C18.31 10.0644 17.81 10.0344 17.25 10.0244H6.75C6.19 10.0344 5.69 10.0644 5.25 10.1244C2.7 10.4344 2 11.6844 2 15.0244V17.0244C2 21.0244 3 22.0244 7 22.0244H17C21 22.0244 22 21.0244 22 17.0244V15.0244C22 11.6844 21.3 10.4344 18.75 10.1244ZM8.71 16.7344C8.52 16.9144 8.26 17.0244 8 17.0244C7.87 17.0244 7.74 16.9944 7.62 16.9444C7.49 16.8944 7.39 16.8244 7.29 16.7344C7.11 16.5444 7 16.2844 7 16.0244C7 15.8944 7.03 15.7644 7.08 15.6444C7.13 15.5244 7.2 15.4144 7.29 15.3144C7.39 15.2244 7.49 15.1544 7.62 15.1044C7.99 14.9444 8.43 15.0344 8.71 15.3144C8.8 15.4144 8.87 15.5244 8.92 15.6444C8.97 15.7644 9 15.8944 9 16.0244C9 16.2844 8.89 16.5444 8.71 16.7344ZM12.92 16.4044C12.87 16.5244 12.8 16.6344 12.71 16.7344C12.52 16.9144 12.26 17.0244 12 17.0244C11.73 17.0244 11.48 16.9144 11.29 16.7344C11.2 16.6344 11.13 16.5244 11.08 16.4044C11.03 16.2844 11 16.1544 11 16.0244C11 15.7544 11.11 15.5044 11.29 15.3144C11.66 14.9444 12.33 14.9444 12.71 15.3144C12.89 15.5044 13 15.7544 13 16.0244C13 16.1544 12.97 16.2844 12.92 16.4044ZM16.71 16.7344C16.52 16.9144 16.26 17.0244 16 17.0244C15.74 17.0244 15.48 16.9144 15.29 16.7344C15.11 16.5444 15 16.2944 15 16.0244C15 15.7544 15.11 15.5044 15.29 15.3144C15.67 14.9444 16.34 14.9444 16.71 15.3144C16.75 15.3644 16.79 15.4144 16.83 15.4744C16.87 15.5244 16.9 15.5844 16.92 15.6444C16.95 15.7044 16.97 15.7644 16.98 15.8244C16.99 15.8944 17 15.9644 17 16.0244C17 16.2844 16.89 16.5444 16.71 16.7344Z" fill="url(#paint1_linear_1_770)"/>
<defs>
<linearGradient id="paint0_linear_1_770" x1="16.6226" y1="1.9975" x2="13.5664" y2="10.6591" gradientUnits="userSpaceOnUse">
<stop stop-color="#2254F5"/>
<stop offset="1" stop-color="#1890FF"/>
</linearGradient>
<linearGradient id="paint1_linear_1_770" x1="18.8482" y1="11.0049" x2="14.9861" y2="22.9644" gradientUnits="userSpaceOnUse">
<stop stop-color="#2254F5"/>
<stop offset="1" stop-color="#1890FF"/>
</linearGradient>
</defs>
</svg>
