<svg width="24" height="25" viewBox="0 0 24 25" fill="none" xmlns="http://www.w3.org/2000/svg">
<path d="M16.19 2.02435H7.81C4.17 2.02435 2 4.19435 2 7.83435V16.2144C2 19.8544 4.17 22.0244 7.81 22.0244H16.19C19.83 22.0244 22 19.8544 22 16.2144V7.83435C22 4.19435 19.83 2.02435 16.19 2.02435ZM9.97 14.9244L7.72 17.1744C7.57 17.3244 7.38 17.3944 7.19 17.3944C7 17.3944 6.8 17.3244 6.66 17.1744L5.91 16.4244C5.61 16.1344 5.61 15.6544 5.91 15.3644C6.2 15.0744 6.67 15.0744 6.97 15.3644L7.19 15.5844L8.91 13.8644C9.2 13.5744 9.67 13.5744 9.97 13.8644C10.26 14.1544 10.26 14.6344 9.97 14.9244ZM9.97 7.92435L7.72 10.1744C7.57 10.3244 7.38 10.3944 7.19 10.3944C7 10.3944 6.8 10.3244 6.66 10.1744L5.91 9.42435C5.61 9.13435 5.61 8.65435 5.91 8.36435C6.2 8.07435 6.67 8.07435 6.97 8.36435L7.19 8.58435L8.91 6.86435C9.2 6.57435 9.67 6.57435 9.97 6.86435C10.26 7.15435 10.26 7.63435 9.97 7.92435ZM17.56 16.6444H12.31C11.9 16.6444 11.56 16.3044 11.56 15.8944C11.56 15.4844 11.9 15.1444 12.31 15.1444H17.56C17.98 15.1444 18.31 15.4844 18.31 15.8944C18.31 16.3044 17.98 16.6444 17.56 16.6444ZM17.56 9.64435H12.31C11.9 9.64435 11.56 9.30435 11.56 8.89435C11.56 8.48435 11.9 8.14435 12.31 8.14435H17.56C17.98 8.14435 18.31 8.48435 18.31 8.89435C18.31 9.30435 17.98 9.64435 17.56 9.64435Z" fill="url(#paint0_linear_1_738)"/>
<defs>
<linearGradient id="paint0_linear_1_738" x1="18.8482" y1="3.65859" x2="9.66234" y2="20.7257" gradientUnits="userSpaceOnUse">
<stop stop-color="#2254F5"/>
<stop offset="1" stop-color="#1890FF"/>
</linearGradient>
</defs>
</svg>
