<svg width="24" height="25" viewBox="0 0 24 25" fill="none" xmlns="http://www.w3.org/2000/svg">
<path d="M16.19 2.02435H7.81C4.17 2.02435 2 4.19435 2 7.83435V16.2044C2 19.8544 4.17 22.0244 7.81 22.0244H16.18C19.82 22.0244 21.99 19.8544 21.99 16.2144V7.83435C22 4.19435 19.83 2.02435 16.19 2.02435ZM12 18.2744C10.21 18.2744 8.81 17.3844 7.86 16.5044V17.2144C7.86 17.6244 7.52 17.9644 7.11 17.9644C6.7 17.9644 6.36 17.6244 6.36 17.2144V14.4644C6.36 14.0544 6.7 13.7144 7.11 13.7144H9.59C10 13.7144 10.34 14.0544 10.34 14.4644C10.34 14.8744 10 15.2144 9.59 15.2144H8.69C9.43 15.9544 10.58 16.7744 12 16.7744C14.62 16.7744 16.75 14.6444 16.75 12.0244C16.75 11.6144 17.09 11.2744 17.5 11.2744C17.91 11.2744 18.25 11.6144 18.25 12.0244C18.25 15.4744 15.45 18.2744 12 18.2744ZM18.25 9.56435C18.25 9.59435 18.25 9.62435 18.25 9.64435C18.24 9.75435 18.21 9.85435 18.16 9.94435C18.11 10.0344 18.04 10.1144 17.95 10.1844C17.88 10.2344 17.8 10.2744 17.71 10.3044C17.64 10.3244 17.57 10.3344 17.5 10.3344H15.07C14.66 10.3344 14.32 9.99435 14.32 9.58435C14.32 9.17435 14.66 8.83435 15.07 8.83435H15.9C15.1 8.09435 13.81 7.27435 12.02 7.27435C9.4 7.27435 7.27 9.40435 7.27 12.0244C7.27 12.4344 6.93 12.7744 6.52 12.7744C6.11 12.7744 5.75 12.4344 5.75 12.0244C5.75 8.57435 8.55 5.77435 12 5.77435C14.15 5.77435 15.73 6.70435 16.75 7.59435V6.83435C16.75 6.42435 17.09 6.08435 17.5 6.08435C17.91 6.08435 18.25 6.42435 18.25 6.83435V9.56435Z" fill="url(#paint0_linear_1_811)"/>
<defs>
<linearGradient id="paint0_linear_1_811" x1="18.8399" y1="3.65859" x2="9.65142" y2="20.7218" gradientUnits="userSpaceOnUse">
<stop stop-color="#2254F5"/>
<stop offset="1" stop-color="#1890FF"/>
</linearGradient>
</defs>
</svg>
