<svg width="24" height="25" viewBox="0 0 24 25" fill="none" xmlns="http://www.w3.org/2000/svg">
<path d="M12 2.02435C6.48 2.02435 2 6.50435 2 12.0244C2 17.5444 6.48 22.0244 12 22.0244C17.52 22.0244 22 17.5444 22 12.0244C22 6.50435 17.52 2.02435 12 2.02435ZM12 19.7744C7.73 19.7744 4.25 16.2944 4.25 12.0244C4.25 10.6644 4.61 9.33435 5.28 8.16435C5.48 7.80435 5.94 7.68435 6.3 7.88435L12.37 11.3744C12.73 11.5844 12.85 12.0344 12.65 12.3944C12.44 12.7544 11.99 12.8744 11.63 12.6744L6.24 9.58435C5.92 10.3544 5.75 11.1844 5.75 12.0244C5.75 15.4744 8.55 18.2744 12 18.2744C15.45 18.2744 18.25 15.4744 18.25 12.0244C18.25 8.57435 15.45 5.77435 12 5.77435C10.64 5.77435 9.34 6.20435 8.25 7.02435C7.92 7.27435 7.45 7.20435 7.2 6.87435C6.95 6.54435 7.02 6.07435 7.35 5.82435C8.7 4.81435 10.31 4.27435 12 4.27435C16.27 4.27435 19.75 7.75435 19.75 12.0244C19.75 16.2944 16.27 19.7744 12 19.7744Z" fill="url(#paint0_linear_1_789)"/>
<defs>
<linearGradient id="paint0_linear_1_789" x1="18.8482" y1="3.65859" x2="9.66234" y2="20.7257" gradientUnits="userSpaceOnUse">
<stop stop-color="#2254F5"/>
<stop offset="1" stop-color="#1890FF"/>
</linearGradient>
</defs>
</svg>
