<svg width="29" height="22" viewBox="0 0 29 22" fill="none" xmlns="http://www.w3.org/2000/svg">
<path d="M25.8824 0.647059C24.4459 0.194118 22.8671 0 21.3529 0C18.8294 0 16.1118 0.517647 14.2353 1.94118C12.3588 0.517647 9.6412 0 7.11765 0C4.59414 0 1.87647 0.517647 0 1.94118V20.9C0 21.2235 0.323529 21.547 0.647059 21.547C0.776471 21.547 0.841177 21.4824 0.970588 21.4824C2.71765 20.6412 5.2412 20.0588 7.11765 20.0588C9.6412 20.0588 12.3588 20.5765 14.2353 22C15.9824 20.9 19.1529 20.0588 21.3529 20.0588C23.4883 20.0588 25.6883 20.4471 27.5 21.4176C27.6294 21.4824 27.6941 21.4824 27.8235 21.4824C28.1471 21.4824 28.4706 21.1588 28.4706 20.8353V1.94118C27.6941 1.35882 26.853 0.970588 25.8824 0.647059ZM25.8824 18.1176C24.4588 17.6647 22.9059 17.4706 21.3529 17.4706C19.1529 17.4706 15.9824 18.3117 14.2353 19.4118V4.52941C15.9824 3.42941 19.1529 2.58824 21.3529 2.58824C22.9059 2.58824 24.4588 2.78235 25.8824 3.23529V18.1176Z" fill="url(#paint0_linear_1_572)"/>
<path d="M21.3528 7.76466C22.4916 7.76466 23.5916 7.88115 24.5881 8.10113V6.13407C23.5657 5.93994 22.4658 5.82349 21.3528 5.82349C19.1528 5.82349 17.1599 6.19876 15.5293 6.89759V9.04582C16.9916 8.21758 19.0234 7.76466 21.3528 7.76466Z" fill="url(#paint1_linear_1_572)"/>
<path d="M15.5293 10.3401V12.4883C16.9916 11.6601 19.0234 11.2072 21.3528 11.2072C22.4916 11.2072 23.5916 11.3236 24.5881 11.5436V9.57658C23.5657 9.38244 22.4658 9.26599 21.3528 9.26599C19.1528 9.26599 17.1599 9.65423 15.5293 10.3401Z" fill="url(#paint2_linear_1_572)"/>
<path d="M21.3528 12.7212C19.1528 12.7212 17.1599 13.0965 15.5293 13.7953V15.9435C16.9916 15.1153 19.0234 14.6624 21.3528 14.6624C22.4916 14.6624 23.5916 14.7788 24.5881 14.9988V13.0318C23.5657 12.8247 22.4658 12.7212 21.3528 12.7212Z" fill="url(#paint3_linear_1_572)"/>
<defs>
<linearGradient id="paint0_linear_1_572" x1="23.984" y1="1.79767" x2="15.399" y2="22.4394" gradientUnits="userSpaceOnUse">
<stop stop-color="#2254F5"/>
<stop offset="1" stop-color="#1890FF"/>
</linearGradient>
<linearGradient id="paint1_linear_1_572" x1="23.1606" y1="6.0868" x2="22.5056" y2="9.50779" gradientUnits="userSpaceOnUse">
<stop stop-color="#2254F5"/>
<stop offset="1" stop-color="#1890FF"/>
</linearGradient>
<linearGradient id="paint2_linear_1_572" x1="23.1606" y1="9.5293" x2="22.5056" y2="12.9503" gradientUnits="userSpaceOnUse">
<stop stop-color="#2254F5"/>
<stop offset="1" stop-color="#1890FF"/>
</linearGradient>
<linearGradient id="paint3_linear_1_572" x1="23.1606" y1="12.9845" x2="22.5056" y2="16.4055" gradientUnits="userSpaceOnUse">
<stop stop-color="#2254F5"/>
<stop offset="1" stop-color="#1890FF"/>
</linearGradient>
</defs>
</svg>
