<svg xmlns="http://www.w3.org/2000/svg">


	<symbol id="mail-icon">
		<path d="M2 9C2 5.5 4 4 7 4H17C20 4 22 5.5 22 9V16C22 19.5 20 21 17 21H7" stroke="currentColor" stroke-width="1.5"
			stroke-miterlimit="10" stroke-linecap="round" stroke-linejoin="round"></path>
		<path d="M17 9.5L13.87 12C12.84 12.82 11.15 12.82 10.12 12L7 9.5" stroke="currentColor" stroke-width="1.5"
			stroke-miterlimit="10" stroke-linecap="round" stroke-linejoin="round"></path>
		<path d="M2 17H8" stroke="currentColor" stroke-width="1.5" stroke-miterlimit="10" stroke-linecap="round"
			stroke-linejoin="round"></path>
		<path d="M2 13H5" stroke="currentColor" stroke-width="1.5" stroke-miterlimit="10" stroke-linecap="round"
			stroke-linejoin="round"></path>
	</symbol>
	<symbol id="social_01">
		<path
			d="M9.53878 16H12.8721L14.2054 10.6667H9.53878V8.00002C9.53878 6.62669 9.53878 5.33335 12.2054 5.33335H14.2054V0.853354C13.7708 0.79602 12.1294 0.666687 10.3961 0.666687C6.77611 0.666687 4.20544 2.87602 4.20544 6.93335V10.6667H0.205444V16H4.20544V27.3334H9.53878V16Z"
			fill="currentColor"></path>
	</symbol>
	<symbol id="social_02">
		<path
			d="M10.1469 0.833252C12.6375 0.833252 12.9483 0.842419 13.9254 0.888253C14.9017 0.934087 15.5663 1.08717 16.1511 1.31451C16.7561 1.54734 17.2658 1.86268 17.7755 2.37144C18.2416 2.82968 18.6023 3.38399 18.8324 3.99579C19.0588 4.57972 19.2128 5.24523 19.2587 6.22149C19.3018 7.19867 19.3137 7.50942 19.3137 10C19.3137 12.4907 19.3045 12.8014 19.2587 13.7786C19.2128 14.7549 19.0588 15.4194 18.8324 16.0043C18.603 16.6164 18.2422 17.1709 17.7755 17.6286C17.3171 18.0946 16.7628 18.4553 16.1511 18.6856C15.5672 18.912 14.9017 19.066 13.9254 19.1118C12.9483 19.1549 12.6375 19.1668 10.1469 19.1668C7.65627 19.1668 7.34552 19.1577 6.36834 19.1118C5.39208 19.066 4.72749 18.912 4.14264 18.6856C3.5306 18.4559 2.9762 18.0952 2.51829 17.6286C2.05207 17.1705 1.69138 16.6161 1.46136 16.0043C1.23402 15.4204 1.08094 14.7549 1.0351 13.7786C0.992019 12.8014 0.980103 12.4907 0.980103 10C0.980103 7.50942 0.989269 7.19867 1.0351 6.22149C1.08094 5.24431 1.23402 4.58064 1.46136 3.99579C1.69075 3.38362 2.05152 2.82916 2.51829 2.37144C2.97633 1.90506 3.5307 1.54435 4.14264 1.31451C4.72749 1.08717 5.39116 0.934087 6.36834 0.888253C7.34552 0.845169 7.65627 0.833252 10.1469 0.833252ZM10.1469 5.41665C8.9313 5.41665 7.7655 5.89954 6.90594 6.75909C6.04639 7.61864 5.5635 8.78445 5.5635 10C5.5635 11.2156 6.04639 12.3814 6.90594 13.241C7.7655 14.1005 8.9313 14.5834 10.1469 14.5834C11.3625 14.5834 12.5283 14.1005 13.3878 13.241C14.2474 12.3814 14.7303 11.2156 14.7303 10C14.7303 8.78445 14.2474 7.61864 13.3878 6.75909C12.5283 5.89954 11.3625 5.41665 10.1469 5.41665ZM16.1053 5.18748C16.1053 4.88358 15.9846 4.59213 15.7697 4.37724C15.5548 4.16235 15.2634 4.04163 14.9595 4.04163C14.6556 4.04163 14.3641 4.16235 14.1492 4.37724C13.9343 4.59213 13.8136 4.88358 13.8136 5.18748C13.8136 5.49137 13.9343 5.78283 14.1492 5.99771C14.3641 6.2126 14.6556 6.33333 14.9595 6.33333C15.2634 6.33333 15.5548 6.2126 15.7697 5.99771C15.9846 5.78283 16.1053 5.49137 16.1053 5.18748ZM10.1469 7.25C10.8762 7.25 11.5757 7.53974 12.0915 8.05547C12.6072 8.5712 12.8969 9.27069 12.8969 10C12.8969 10.7294 12.6072 11.4289 12.0915 11.9446C11.5757 12.4603 10.8762 12.7501 10.1469 12.7501C9.41754 12.7501 8.71805 12.4603 8.20232 11.9446C7.68659 11.4289 7.39685 10.7294 7.39685 10C7.39685 9.27069 7.68659 8.5712 8.20232 8.05547C8.71805 7.53974 9.41754 7.25 10.1469 7.25Z"
			fill="currentColor"></path>
	</symbol>
	<symbol id="social_03">
		<path
			d="M19 0h-14c-2.761 0-5 2.239-5 5v14c0 2.761 2.239 5 5 5h14c2.762 0 5-2.239 5-5v-14c0-2.761-2.238-5-5-5zm-11 19h-3v-11h3v11zm-1.5-12.268c-.966 0-1.75-.79-1.75-1.764s.784-1.764 1.75-1.764 1.75.79 1.75 1.764-.783 1.764-1.75 1.764zm13.5 12.268h-3v-5.604c0-3.368-4-3.113-4 0v5.604h-3v-11h3v1.765c1.396-2.586 7-2.777 7 2.476v6.759z"
			fill="currentColor"></path>
	</symbol>
	<symbol id="social_04">
		<path
			d="M18.1882 2.95661C18.6071 4.59013 18.6071 8.00018 18.6071 8.00018C18.6071 8.00018 18.6071 11.4102 18.1882 13.0437C17.9554 13.9467 17.2743 14.6571 16.4117 14.8973C14.8451 15.3336 9.44035 15.3336 9.44035 15.3336C9.44035 15.3336 4.03836 15.3336 2.46901 14.8973C1.60274 14.6534 0.922568 13.9439 0.692482 13.0437C0.27356 11.4102 0.27356 8.00018 0.27356 8.00018C0.27356 8.00018 0.27356 4.59013 0.692482 2.95661C0.925318 2.05368 1.60641 1.34326 2.46901 1.10309C4.03836 0.666748 9.44035 0.666748 9.44035 0.666748C9.44035 0.666748 14.8451 0.666748 16.4117 1.10309C17.278 1.34692 17.9581 2.05643 18.1882 2.95661ZM7.60699 11.2086L13.1071 8.00018L7.60699 4.7918V11.2086Z"
			fill="currentColor"></path>
	</symbol>
	<symbol id="copy">
		<path
			d="M10.0003 1.6665C14.6003 1.6665 18.3337 5.39984 18.3337 9.99984C18.3337 14.5998 14.6003 18.3332 10.0003 18.3332C5.40032 18.3332 1.66699 14.5998 1.66699 9.99984C1.66699 5.39984 5.40032 1.6665 10.0003 1.6665ZM10.0003 3.33317C6.31699 3.33317 3.33366 6.3165 3.33366 9.99984C3.33366 13.6832 6.31699 16.6665 10.0003 16.6665C13.6837 16.6665 16.667 13.6832 16.667 9.99984C16.667 6.3165 13.6837 3.33317 10.0003 3.33317ZM10.0003 5.83317C11.517 5.83317 12.8445 6.644 13.5737 7.8565L12.1453 8.714C11.9205 8.3392 11.6014 8.02988 11.2198 7.81687C10.8382 7.60387 10.4074 7.49462 9.97042 7.50003C9.53342 7.50543 9.10547 7.6253 8.72924 7.84769C8.35302 8.07007 8.04166 8.38719 7.82622 8.76744C7.61078 9.14768 7.49878 9.57776 7.50139 10.0148C7.50401 10.4518 7.62114 10.8805 7.84111 11.2582C8.06109 11.6358 8.37622 11.9492 8.75508 12.167C9.13393 12.3849 9.56329 12.4997 10.0003 12.4998C10.4321 12.5001 10.8566 12.3885 11.2324 12.1758C11.6082 11.9632 11.9224 11.6568 12.1445 11.2865L13.5737 12.1432C13.1053 12.9254 12.3934 13.5323 11.5469 13.871C10.7005 14.2096 9.76634 14.2612 8.88774 14.0179C8.00914 13.7746 7.23461 13.2498 6.68294 12.524C6.13127 11.7982 5.83292 10.9115 5.83366 9.99984C5.83366 7.69984 7.70032 5.83317 10.0003 5.83317Z"
			fill="currentColor"></path>
	</symbol>

</svg>