<svg width="70" height="20" viewBox="0 0 70 20" fill="none" xmlns="http://www.w3.org/2000/svg">
<mask id="mask0_1_45" style="mask-type:luminance" maskUnits="userSpaceOnUse" x="0" y="0" width="70" height="20">
<path d="M70 0H0V20H70V0Z" fill="white"/>
</mask>
<g mask="url(#mask0_1_45)">
<path d="M69.7252 4.22571H67.6393C67.5668 4.22571 67.4973 4.25573 67.446 4.30918C67.3948 4.36263 67.366 4.43512 67.366 4.51071V19.3609C67.366 19.4365 67.3948 19.509 67.446 19.5624C67.4973 19.6159 67.5668 19.6459 67.6393 19.6459H69.7252C69.7611 19.6459 69.7967 19.6385 69.8299 19.6242C69.863 19.6099 69.8931 19.5889 69.9185 19.5624C69.9439 19.536 69.964 19.5046 69.9778 19.47C69.9915 19.4354 69.9986 19.3983 69.9986 19.3609V4.51071C69.9986 4.47328 69.9915 4.43622 69.9778 4.40164C69.964 4.36707 69.9439 4.33565 69.9185 4.30918C69.8931 4.28272 69.863 4.26172 69.8299 4.2474C69.7967 4.23308 69.7611 4.22571 69.7252 4.22571Z" fill="#2254F5"/>
<path d="M62.7913 4.22571H60.7053C60.6329 4.22571 60.5633 4.25573 60.5121 4.30918C60.4608 4.36263 60.432 4.43512 60.432 4.51071V19.3609C60.432 19.4365 60.4608 19.509 60.5121 19.5624C60.5633 19.6159 60.6329 19.6459 60.7053 19.6459H62.7913C62.8638 19.6459 62.9333 19.6159 62.9846 19.5624C63.0358 19.509 63.0646 19.4365 63.0646 19.3609V4.51071C63.0646 4.43512 63.0358 4.36263 62.9846 4.30918C62.9333 4.25573 62.8638 4.22571 62.7913 4.22571Z" fill="#2254F5"/>
<path d="M62.7913 0.109741H60.7053C60.6329 0.109741 60.5633 0.139768 60.5121 0.193216C60.4608 0.246664 60.432 0.319154 60.432 0.394741V2.11122C60.432 2.1868 60.4608 2.25929 60.5121 2.31274C60.5633 2.36619 60.6329 2.39622 60.7053 2.39622H62.7913C62.8638 2.39622 62.9333 2.36619 62.9846 2.31274C63.0358 2.25929 63.0646 2.1868 63.0646 2.11122V0.394741C63.0646 0.319154 63.0358 0.246664 62.9846 0.193216C62.9333 0.139768 62.8638 0.109741 62.7913 0.109741Z" fill="#2254F5"/>
<path d="M69.7266 0.109741H67.6406C67.5682 0.109741 67.4986 0.139768 67.4474 0.193216C67.3961 0.246664 67.3673 0.319154 67.3673 0.394741V2.11122C67.3673 2.1868 67.3961 2.25929 67.4474 2.31274C67.4986 2.36619 67.5682 2.39622 67.6406 2.39622H69.7266C69.7991 2.39622 69.8686 2.36619 69.9199 2.31274C69.9711 2.25929 69.9999 2.1868 69.9999 2.11122V0.394741C69.9999 0.319154 69.9711 0.246664 69.9199 0.193216C69.8686 0.139768 69.7991 0.109741 69.7266 0.109741Z" fill="#2254F5"/>
<path d="M44.6371 10.894C43.8667 10.1726 43.062 9.49194 42.2261 8.85478C41.3951 8.26755 40.6309 7.58364 39.9482 6.81624C39.548 6.27244 39.3397 5.60144 39.3584 4.91624C39.316 4.22789 39.5271 3.54859 39.9486 3.01696C40.1372 2.78942 40.3721 2.60863 40.6363 2.4878C40.9004 2.36696 41.1871 2.30912 41.4754 2.3185C41.7832 2.30967 42.0887 2.3757 42.3677 2.51136C42.6468 2.64703 42.8917 2.84859 43.083 3.10009C43.5156 3.67051 43.7346 4.38538 43.6994 5.11164V5.86732C43.6942 5.90525 43.6976 5.94392 43.7092 5.98027C43.7208 6.01661 43.7404 6.04964 43.7664 6.07673C43.7924 6.10382 43.824 6.12424 43.8589 6.13636C43.8938 6.14848 43.9309 6.15197 43.9672 6.14656H45.9503C45.9867 6.15189 46.0238 6.14835 46.0586 6.1362C46.0934 6.12405 46.125 6.10364 46.151 6.07656C46.177 6.04949 46.1966 6.01649 46.2082 5.98018C46.2199 5.94387 46.2233 5.90524 46.2181 5.86732V5.16777C46.2474 4.48458 46.1465 3.80212 45.9214 3.15979C45.6963 2.51745 45.3514 1.92797 44.9067 1.42535C44.4645 0.947473 43.9299 0.57321 43.3382 0.32745C42.7466 0.0816901 42.1116 -0.0299358 41.4754 -5.69855e-06C40.8592 -0.0258491 40.2445 0.0797737 39.6688 0.31039C39.0932 0.541006 38.5687 0.891757 38.1277 1.34115C37.2706 2.2163 36.8421 3.408 36.8421 4.91624C36.8227 5.77824 37.0067 6.63201 37.3781 7.40243C37.7135 8.08073 38.157 8.69472 38.6896 9.21823C39.3728 9.86245 40.0882 10.4686 40.8328 11.034C41.6544 11.6666 42.2444 12.1509 42.6026 12.4867C42.9632 12.7856 43.2635 13.1559 43.4861 13.5763C43.7242 14.0093 43.8448 14.5017 43.8347 15.0006C43.8634 15.7137 43.6329 16.4118 43.1893 16.9553C42.9941 17.1911 42.7509 17.3787 42.4775 17.5044C42.2041 17.6302 41.9073 17.6909 41.6086 17.6822C41.3075 17.6898 41.0087 17.6257 40.7349 17.4947C40.4611 17.3638 40.2196 17.1695 40.0286 16.9265C39.5962 16.3356 39.3781 15.6042 39.4129 14.8617V14.2752C39.4181 14.2373 39.4147 14.1986 39.403 14.1623C39.3914 14.126 39.3718 14.093 39.3458 14.0659C39.3198 14.0389 39.2882 14.0184 39.2534 14.0063C39.2185 13.9941 39.1815 13.9906 39.1451 13.9959H37.1624C37.126 13.9906 37.0889 13.9941 37.0541 14.0063C37.0193 14.0184 36.9876 14.0389 36.9617 14.0659C36.9357 14.093 36.9161 14.126 36.9045 14.1623C36.8928 14.1986 36.8894 14.2373 36.8945 14.2752V15.0013C36.8679 15.6652 36.9679 16.328 37.1887 16.9513C37.4095 17.5747 37.7467 18.1461 38.1808 18.6326C38.633 19.0919 39.1703 19.4501 39.7599 19.6853C40.3495 19.9204 40.979 20.0275 41.6097 20C42.2427 20.0268 42.8742 19.9167 43.4644 19.6764C44.0546 19.4362 44.5907 19.0711 45.0388 18.6041C45.9132 17.6544 46.3503 16.3974 46.3503 14.8333C46.3699 14.0702 46.2136 13.3134 45.8944 12.6263C45.5898 11.9673 45.1617 11.3786 44.6354 10.8948" fill="#272D38"/>
<path d="M57.6851 0.223846H48.0671C48.0308 0.218512 47.9937 0.222059 47.9589 0.234206C47.9241 0.246353 47.8924 0.266769 47.8664 0.293843C47.8405 0.320918 47.8209 0.353912 47.8092 0.390223C47.7976 0.426535 47.7942 0.465172 47.7993 0.503088V2.26311C47.7942 2.30102 47.7976 2.33966 47.8092 2.37597C47.8209 2.41228 47.8405 2.44528 47.8664 2.47235C47.8924 2.49942 47.9241 2.51984 47.9589 2.53199C47.9937 2.54413 48.0308 2.54768 48.0671 2.54235H51.3893C51.4038 2.54013 51.4187 2.54148 51.4326 2.54627C51.4466 2.55106 51.4592 2.55918 51.4696 2.56996C51.4801 2.58075 51.4879 2.59392 51.4926 2.60843C51.4973 2.62294 51.4987 2.63838 51.4967 2.65354V19.4977C51.4915 19.5356 51.4948 19.5743 51.5064 19.6106C51.5181 19.647 51.5376 19.68 51.5636 19.7071C51.5896 19.7342 51.6213 19.7546 51.6561 19.7667C51.691 19.7788 51.7281 19.7823 51.7645 19.7769H53.8007C53.8371 19.7822 53.8741 19.7787 53.909 19.7666C53.9438 19.7544 53.9754 19.734 54.0014 19.7069C54.0274 19.6798 54.047 19.6468 54.0586 19.6105C54.0703 19.5742 54.0737 19.5356 54.0685 19.4977V2.6539C54.0665 2.63874 54.0679 2.6233 54.0726 2.60879C54.0773 2.59428 54.0851 2.58111 54.0955 2.57032C54.106 2.55954 54.1186 2.55142 54.1326 2.54663C54.1465 2.54184 54.1613 2.54049 54.1759 2.54271H57.6851C57.7215 2.54804 57.7585 2.54449 57.7934 2.53235C57.8282 2.5202 57.8598 2.49978 57.8858 2.47271C57.9118 2.44563 57.9314 2.41264 57.943 2.37633C57.9547 2.34002 57.9581 2.30138 57.9529 2.26347V0.503088C57.9581 0.465172 57.9547 0.426535 57.943 0.390223C57.9314 0.353912 57.9118 0.320918 57.8858 0.293843C57.8598 0.266769 57.8282 0.246353 57.7934 0.234206C57.7585 0.222059 57.7215 0.218512 57.6851 0.223846Z" fill="#272D38"/>
<path d="M19.6499 10.8941C19.6419 10.8638 19.6427 10.8318 19.6522 10.802C19.6616 10.7722 19.6794 10.746 19.7031 10.7267C20.5124 10.3307 21.1789 9.67498 21.6051 8.85552C22.0855 7.91031 22.325 6.85223 22.3005 5.78278C22.3189 4.78873 22.1173 3.80364 21.7114 2.90399C21.3734 2.09305 20.8144 1.40348 20.1038 0.920872C19.3828 0.44881 18.5453 0.206553 17.6941 0.223846H12.8968C12.8605 0.218512 12.8234 0.222059 12.7886 0.234206C12.7538 0.246353 12.7221 0.266769 12.6962 0.293843C12.6702 0.320918 12.6506 0.353912 12.639 0.390223C12.6273 0.426535 12.6239 0.465172 12.629 0.503088V19.4977C12.6239 19.5356 12.6273 19.5742 12.639 19.6105C12.6506 19.6468 12.6702 19.6798 12.6962 19.7069C12.7221 19.734 12.7538 19.7544 12.7886 19.7666C12.8234 19.7787 12.8605 19.7822 12.8968 19.7769H14.9331C14.9695 19.7823 15.0066 19.7788 15.0414 19.7667C15.0763 19.7546 15.1079 19.7342 15.1339 19.7071C15.1599 19.68 15.1795 19.647 15.1911 19.6106C15.2027 19.5743 15.2061 19.5356 15.2009 19.4977V11.2571C15.1988 11.2419 15.2002 11.2265 15.2048 11.2119C15.2095 11.1973 15.2173 11.1841 15.2278 11.1732C15.2382 11.1624 15.2509 11.1542 15.2648 11.1493C15.2788 11.1445 15.2937 11.1431 15.3082 11.1452H17.1837C17.2082 11.1437 17.2325 11.1513 17.2522 11.1667C17.2719 11.1822 17.2856 11.2044 17.291 11.2294L19.7566 19.5534C19.7784 19.623 19.822 19.6829 19.8804 19.7235C19.9388 19.7641 20.0086 19.7831 20.0786 19.7773H22.168C22.3292 19.7773 22.4096 19.7125 22.4096 19.5819L22.383 19.47L19.6499 10.8941ZM17.292 9.02285H15.3096C15.295 9.02502 15.2802 9.02361 15.2662 9.01875C15.2522 9.01389 15.2396 9.00571 15.2291 8.99486C15.2187 8.984 15.2109 8.97076 15.2062 8.9562C15.2016 8.94164 15.2002 8.92614 15.2023 8.91094V2.6539C15.2003 2.63874 15.2016 2.6233 15.2063 2.60879C15.211 2.59428 15.2189 2.58111 15.2293 2.57032C15.2397 2.55954 15.2524 2.55142 15.2663 2.54663C15.2803 2.54184 15.2951 2.54049 15.3096 2.54271H17.2924C17.6342 2.53307 17.9732 2.60921 18.2809 2.7647C18.5886 2.9202 18.8559 3.1505 19.0605 3.43621C19.54 4.12351 19.7767 4.96265 19.7304 5.81121C19.7684 6.64993 19.5322 7.47728 19.0605 8.15778C18.8517 8.43678 18.5828 8.66057 18.2757 8.81099C17.9685 8.96142 17.6316 9.03425 17.2924 9.02357" fill="#272D38"/>
<path d="M9.8858 0.223846H0.267811C0.231446 0.218512 0.19439 0.222059 0.159563 0.234206C0.124737 0.246353 0.0930934 0.266769 0.0671263 0.293843C0.0411592 0.320918 0.0215787 0.353912 0.00992851 0.390223C-0.00172169 0.426535 -0.00512313 0.465172 -7.66894e-06 0.503088V2.26311C-0.00512313 2.30102 -0.00172169 2.33966 0.00992851 2.37597C0.0215787 2.41228 0.0411592 2.44528 0.0671263 2.47235C0.0930934 2.49942 0.124737 2.51984 0.159563 2.53199C0.19439 2.54413 0.231446 2.54768 0.267811 2.54235H3.58931C3.60384 2.54013 3.61866 2.54148 3.6326 2.54627C3.64654 2.55106 3.65923 2.55918 3.66964 2.56996C3.68005 2.58075 3.68792 2.59392 3.6926 2.60843C3.69729 2.62294 3.69868 2.63838 3.69665 2.65354V19.4977C3.69146 19.5356 3.69481 19.5743 3.70643 19.6106C3.71805 19.647 3.73763 19.68 3.76362 19.7071C3.7896 19.7342 3.82128 19.7546 3.85614 19.7667C3.891 19.7788 3.92809 19.7823 3.96446 19.7769H6.00071C6.03708 19.7822 6.07413 19.7787 6.10896 19.7666C6.14379 19.7544 6.17543 19.734 6.2014 19.7069C6.22736 19.6798 6.24694 19.6468 6.25859 19.6105C6.27024 19.5742 6.27365 19.5356 6.26853 19.4977V2.6539C6.2665 2.63874 6.26788 2.6233 6.27257 2.60879C6.27726 2.59428 6.28512 2.58111 6.29554 2.57032C6.30595 2.55954 6.31863 2.55142 6.33257 2.54663C6.34652 2.54184 6.36134 2.54049 6.37587 2.54271H9.8858C9.92217 2.54804 9.95923 2.54449 9.99405 2.53235C10.0289 2.5202 10.0605 2.49978 10.0865 2.47271C10.1125 2.44563 10.132 2.41264 10.1437 2.37633C10.1553 2.34002 10.1587 2.30138 10.1536 2.26347V0.503088C10.1587 0.465172 10.1553 0.426535 10.1437 0.390223C10.132 0.353912 10.1125 0.320918 10.0865 0.293843C10.0605 0.266769 10.0289 0.246353 9.99405 0.234206C9.95923 0.222059 9.92217 0.218512 9.8858 0.223846Z" fill="#272D38"/>
<path d="M34.0932 0.223787H32.0569C32.0206 0.218377 31.9835 0.22187 31.9486 0.233989C31.9138 0.246109 31.8821 0.266523 31.8561 0.293616C31.8301 0.320708 31.8105 0.353735 31.7989 0.390082C31.7873 0.42643 31.7839 0.465099 31.7891 0.503029V14.7491C31.8235 15.5139 31.5956 16.2666 31.1461 16.8722C30.9509 17.1349 30.6985 17.3453 30.4097 17.4862C30.121 17.627 29.8043 17.6942 29.4857 17.6822C29.1675 17.6904 28.8519 17.6215 28.5636 17.4808C28.2753 17.3402 28.0222 17.1317 27.8243 16.8718C27.3914 16.2588 27.174 15.5091 27.2086 14.7487V0.503029C27.2137 0.465113 27.2103 0.426476 27.1987 0.390165C27.187 0.353853 27.1674 0.32086 27.1415 0.293785C27.1155 0.26671 27.0839 0.246294 27.049 0.234147C27.0142 0.222 26.9771 0.218454 26.9408 0.223787H24.9045C24.8682 0.218454 24.8311 0.222 24.7963 0.234147C24.7615 0.246294 24.7298 0.26671 24.7038 0.293785C24.6779 0.32086 24.6583 0.353853 24.6466 0.390165C24.635 0.426476 24.6316 0.465113 24.6367 0.503029V14.4687C24.6367 16.1262 25.0739 17.467 25.9482 18.4911C26.3992 18.9929 26.9487 19.3875 27.5591 19.6481C28.1696 19.9086 28.8267 20.029 29.4857 20.001C30.1445 20.0289 30.8012 19.9087 31.4114 19.6484C32.0216 19.3881 32.5709 18.9939 33.0219 18.4926C33.9142 17.4677 34.3605 16.1264 34.361 14.4687V0.503029C34.3661 0.465113 34.3627 0.426476 34.3511 0.390165C34.3394 0.353853 34.3198 0.32086 34.2939 0.293785C34.2679 0.26671 34.2363 0.246294 34.2014 0.234147C34.1666 0.222 34.1295 0.218454 34.0932 0.223787Z" fill="#272D38"/>
</g>
</svg>
