<svg width="70" height="20" viewBox="0 0 70 20" fill="none" xmlns="http://www.w3.org/2000/svg">
<mask id="mask0_1_215" style="mask-type:luminance" maskUnits="userSpaceOnUse" x="0" y="0" width="70" height="20">
<path d="M70 0H0V20H70V0Z" fill="white"/>
</mask>
<g mask="url(#mask0_1_215)">
<path d="M69.725 4.22571H67.6391C67.5666 4.22571 67.497 4.25573 67.4458 4.30918C67.3945 4.36263 67.3657 4.43512 67.3657 4.51071V19.3609C67.3657 19.4365 67.3945 19.509 67.4458 19.5624C67.497 19.6159 67.5666 19.6459 67.6391 19.6459H69.725C69.7609 19.6459 69.7964 19.6385 69.8296 19.6242C69.8628 19.6099 69.8929 19.5889 69.9183 19.5624C69.9437 19.536 69.9638 19.5046 69.9775 19.47C69.9913 19.4354 69.9983 19.3983 69.9983 19.3609V4.51071C69.9983 4.47328 69.9913 4.43622 69.9775 4.40164C69.9638 4.36707 69.9437 4.33565 69.9183 4.30918C69.8929 4.28272 69.8628 4.26172 69.8296 4.2474C69.7964 4.23308 69.7609 4.22571 69.725 4.22571Z" fill="white"/>
<path d="M62.7912 4.22571H60.7052C60.6327 4.22571 60.5632 4.25573 60.5119 4.30918C60.4607 4.36263 60.4319 4.43512 60.4319 4.51071V19.3609C60.4319 19.4365 60.4607 19.509 60.5119 19.5624C60.5632 19.6159 60.6327 19.6459 60.7052 19.6459H62.7912C62.8637 19.6459 62.9332 19.6159 62.9845 19.5624C63.0357 19.509 63.0645 19.4365 63.0645 19.3609V4.51071C63.0645 4.43512 63.0357 4.36263 62.9845 4.30918C62.9332 4.25573 62.8637 4.22571 62.7912 4.22571Z" fill="white"/>
<path d="M62.7912 0.109741H60.7052C60.6327 0.109741 60.5632 0.139768 60.5119 0.193216C60.4607 0.246664 60.4319 0.319154 60.4319 0.394741V2.11122C60.4319 2.1868 60.4607 2.25929 60.5119 2.31274C60.5632 2.36619 60.6327 2.39622 60.7052 2.39622H62.7912C62.8637 2.39622 62.9332 2.36619 62.9845 2.31274C63.0357 2.25929 63.0645 2.1868 63.0645 2.11122V0.394741C63.0645 0.319154 63.0357 0.246664 62.9845 0.193216C62.9332 0.139768 62.8637 0.109741 62.7912 0.109741Z" fill="white"/>
<path d="M69.7265 0.109741H67.6405C67.568 0.109741 67.4985 0.139768 67.4472 0.193216C67.396 0.246664 67.3672 0.319154 67.3672 0.394741V2.11122C67.3672 2.1868 67.396 2.25929 67.4472 2.31274C67.4985 2.36619 67.568 2.39622 67.6405 2.39622H69.7265C69.799 2.39622 69.8685 2.36619 69.9197 2.31274C69.971 2.25929 69.9998 2.1868 69.9998 2.11122V0.394741C69.9998 0.319154 69.971 0.246664 69.9197 0.193216C69.8685 0.139768 69.799 0.109741 69.7265 0.109741Z" fill="white"/>
<path d="M44.637 10.894C43.8666 10.1726 43.0619 9.49194 42.2259 8.85478C41.395 8.26755 40.6308 7.58364 39.9481 6.81624C39.5479 6.27244 39.3396 5.60144 39.3583 4.91624C39.3159 4.22789 39.5269 3.54859 39.9485 3.01696C40.1371 2.78942 40.372 2.60863 40.6362 2.4878C40.9003 2.36696 41.187 2.30912 41.4753 2.3185C41.7831 2.30967 42.0886 2.3757 42.3676 2.51136C42.6467 2.64703 42.8915 2.84859 43.0829 3.10009C43.5155 3.67051 43.7345 4.38538 43.6993 5.11164V5.86732C43.6941 5.90525 43.6975 5.94392 43.7091 5.98027C43.7207 6.01661 43.7403 6.04964 43.7663 6.07673C43.7922 6.10382 43.8239 6.12424 43.8588 6.13636C43.8936 6.14848 43.9307 6.15197 43.9671 6.14656H45.9502C45.9866 6.15189 46.0236 6.14835 46.0585 6.1362C46.0933 6.12405 46.1249 6.10364 46.1509 6.07656C46.1769 6.04949 46.1964 6.01649 46.2081 5.98018C46.2197 5.94387 46.2231 5.90524 46.218 5.86732V5.16777C46.2472 4.48458 46.1464 3.80212 45.9213 3.15979C45.6962 2.51745 45.3513 1.92797 44.9065 1.42535C44.4644 0.947473 43.9297 0.57321 43.3381 0.32745C42.7465 0.0816901 42.1115 -0.0299358 41.4753 -5.69855e-06C40.8591 -0.0258491 40.2444 0.0797737 39.6687 0.31039C39.093 0.541006 38.5686 0.891757 38.1276 1.34115C37.2705 2.2163 36.842 3.408 36.842 4.91624C36.8226 5.77824 37.0066 6.63201 37.3779 7.40243C37.7134 8.08073 38.1568 8.69472 38.6894 9.21823C39.3727 9.86245 40.0881 10.4686 40.8327 11.034C41.6543 11.6666 42.2442 12.1509 42.6025 12.4867C42.9631 12.7856 43.2633 13.1559 43.486 13.5763C43.7241 14.0093 43.8446 14.5017 43.8346 15.0006C43.8633 15.7137 43.6328 16.4118 43.1892 16.9553C42.9939 17.1911 42.7508 17.3787 42.4774 17.5044C42.204 17.6302 41.9072 17.6909 41.6085 17.6822C41.3074 17.6898 41.0086 17.6257 40.7348 17.4947C40.461 17.3638 40.2194 17.1695 40.0285 16.9265C39.5961 16.3356 39.378 15.6042 39.4128 14.8617V14.2752C39.4179 14.2373 39.4145 14.1986 39.4029 14.1623C39.3912 14.126 39.3716 14.093 39.3457 14.0659C39.3197 14.0389 39.2881 14.0184 39.2532 14.0063C39.2184 13.9941 39.1814 13.9906 39.145 13.9959H37.1622C37.1259 13.9906 37.0888 13.9941 37.054 14.0063C37.0192 14.0184 36.9875 14.0389 36.9616 14.0659C36.9356 14.093 36.916 14.126 36.9044 14.1623C36.8927 14.1986 36.8893 14.2373 36.8944 14.2752V15.0013C36.8678 15.6652 36.9678 16.328 37.1886 16.9513C37.4094 17.5747 37.7466 18.1461 38.1807 18.6326C38.6328 19.0919 39.1702 19.4501 39.7598 19.6853C40.3494 19.9204 40.9788 20.0275 41.6095 20C42.2426 20.0268 42.8741 19.9167 43.4643 19.6764C44.0545 19.4362 44.5906 19.0711 45.0387 18.6041C45.913 17.6544 46.3502 16.3974 46.3502 14.8333C46.3698 14.0702 46.2135 13.3134 45.8943 12.6263C45.5896 11.9673 45.1616 11.3786 44.6353 10.8948" fill="white"/>
<path d="M57.685 0.223846H48.067C48.0306 0.218512 47.9936 0.222059 47.9588 0.234206C47.9239 0.246353 47.8923 0.266769 47.8663 0.293843C47.8404 0.320918 47.8208 0.353912 47.8091 0.390223C47.7975 0.426535 47.7941 0.465172 47.7992 0.503088V2.26311C47.7941 2.30102 47.7975 2.33966 47.8091 2.37597C47.8208 2.41228 47.8404 2.44528 47.8663 2.47235C47.8923 2.49942 47.9239 2.51984 47.9588 2.53199C47.9936 2.54413 48.0306 2.54768 48.067 2.54235H51.3892C51.4037 2.54013 51.4185 2.54148 51.4325 2.54627C51.4464 2.55106 51.4591 2.55918 51.4695 2.56996C51.4799 2.58075 51.4878 2.59392 51.4925 2.60843C51.4972 2.62294 51.4986 2.63838 51.4965 2.65354V19.4977C51.4913 19.5356 51.4947 19.5743 51.5063 19.6106C51.5179 19.647 51.5375 19.68 51.5635 19.7071C51.5895 19.7342 51.6212 19.7546 51.656 19.7667C51.6909 19.7788 51.728 19.7823 51.7643 19.7769H53.8006C53.837 19.7822 53.874 19.7787 53.9088 19.7666C53.9437 19.7544 53.9753 19.734 54.0013 19.7069C54.0272 19.6798 54.0468 19.6468 54.0585 19.6105C54.0701 19.5742 54.0735 19.5356 54.0684 19.4977V2.6539C54.0664 2.63874 54.0678 2.6233 54.0725 2.60879C54.0771 2.59428 54.085 2.58111 54.0954 2.57032C54.1058 2.55954 54.1185 2.55142 54.1325 2.54663C54.1464 2.54184 54.1612 2.54049 54.1757 2.54271H57.685C57.7214 2.54804 57.7584 2.54449 57.7932 2.53235C57.8281 2.5202 57.8597 2.49978 57.8857 2.47271C57.9117 2.44563 57.9312 2.41264 57.9429 2.37633C57.9545 2.34002 57.9579 2.30138 57.9528 2.26347V0.503088C57.9579 0.465172 57.9545 0.426535 57.9429 0.390223C57.9312 0.353912 57.9117 0.320918 57.8857 0.293843C57.8597 0.266769 57.8281 0.246353 57.7932 0.234206C57.7584 0.222059 57.7214 0.218512 57.685 0.223846Z" fill="white"/>
<path d="M19.6499 10.8941C19.6419 10.8638 19.6427 10.8318 19.6522 10.802C19.6616 10.7722 19.6794 10.746 19.7031 10.7267C20.5124 10.3307 21.1789 9.67498 21.6051 8.85552C22.0855 7.91031 22.325 6.85223 22.3005 5.78278C22.3189 4.78873 22.1173 3.80364 21.7114 2.90399C21.3734 2.09305 20.8144 1.40348 20.1038 0.920872C19.3828 0.44881 18.5453 0.206553 17.6941 0.223846H12.8968C12.8605 0.218512 12.8234 0.222059 12.7886 0.234206C12.7538 0.246353 12.7221 0.266769 12.6962 0.293843C12.6702 0.320918 12.6506 0.353912 12.639 0.390223C12.6273 0.426535 12.6239 0.465172 12.629 0.503088V19.4977C12.6239 19.5356 12.6273 19.5742 12.639 19.6105C12.6506 19.6468 12.6702 19.6798 12.6962 19.7069C12.7221 19.734 12.7538 19.7544 12.7886 19.7666C12.8234 19.7787 12.8605 19.7822 12.8968 19.7769H14.9331C14.9695 19.7823 15.0066 19.7788 15.0414 19.7667C15.0763 19.7546 15.1079 19.7342 15.1339 19.7071C15.1599 19.68 15.1795 19.647 15.1911 19.6106C15.2027 19.5743 15.2061 19.5356 15.2009 19.4977V11.2571C15.1988 11.2419 15.2002 11.2265 15.2048 11.2119C15.2095 11.1973 15.2173 11.1841 15.2278 11.1732C15.2382 11.1624 15.2509 11.1542 15.2648 11.1493C15.2788 11.1445 15.2937 11.1431 15.3082 11.1452H17.1837C17.2082 11.1437 17.2325 11.1513 17.2522 11.1667C17.2719 11.1822 17.2856 11.2044 17.291 11.2294L19.7566 19.5534C19.7784 19.623 19.822 19.6829 19.8804 19.7235C19.9388 19.7641 20.0086 19.7831 20.0786 19.7773H22.168C22.3292 19.7773 22.4096 19.7125 22.4096 19.5819L22.383 19.47L19.6499 10.8941ZM17.292 9.02285H15.3096C15.295 9.02502 15.2802 9.02361 15.2662 9.01875C15.2522 9.01389 15.2396 9.00571 15.2291 8.99486C15.2187 8.984 15.2109 8.97076 15.2062 8.9562C15.2016 8.94164 15.2002 8.92614 15.2023 8.91094V2.6539C15.2003 2.63874 15.2016 2.6233 15.2063 2.60879C15.211 2.59428 15.2189 2.58111 15.2293 2.57032C15.2397 2.55954 15.2524 2.55142 15.2663 2.54663C15.2803 2.54184 15.2951 2.54049 15.3096 2.54271H17.2924C17.6342 2.53307 17.9732 2.60921 18.2809 2.7647C18.5886 2.9202 18.8559 3.1505 19.0605 3.43621C19.54 4.12351 19.7767 4.96265 19.7304 5.81121C19.7684 6.64993 19.5322 7.47728 19.0605 8.15778C18.8517 8.43678 18.5828 8.66057 18.2757 8.81099C17.9685 8.96142 17.6316 9.03425 17.2924 9.02357" fill="white"/>
<path d="M9.88568 0.223846H0.267689C0.231324 0.218512 0.194267 0.222059 0.159441 0.234206C0.124615 0.246353 0.0929714 0.266769 0.0670042 0.293843C0.0410371 0.320918 0.0214566 0.353912 0.00980644 0.390223C-0.00184376 0.426535 -0.0052452 0.465172 -0.000129739 0.503088V2.26311C-0.0052452 2.30102 -0.00184376 2.33966 0.00980644 2.37597C0.0214566 2.41228 0.0410371 2.44528 0.0670042 2.47235C0.0929714 2.49942 0.124615 2.51984 0.159441 2.53199C0.194267 2.54413 0.231324 2.54768 0.267689 2.54235H3.58919C3.60372 2.54013 3.61854 2.54148 3.63248 2.54627C3.64642 2.55106 3.6591 2.55918 3.66952 2.56996C3.67993 2.58075 3.68779 2.59392 3.69248 2.60843C3.69717 2.62294 3.69855 2.63838 3.69652 2.65354V19.4977C3.69133 19.5356 3.69468 19.5743 3.70631 19.6106C3.71793 19.647 3.73751 19.68 3.7635 19.7071C3.78948 19.7342 3.82116 19.7546 3.85602 19.7667C3.89088 19.7788 3.92796 19.7823 3.96434 19.7769H6.00059C6.03695 19.7822 6.07401 19.7787 6.10884 19.7666C6.14366 19.7544 6.17531 19.734 6.20127 19.7069C6.22724 19.6798 6.24682 19.6468 6.25847 19.6105C6.27012 19.5742 6.27352 19.5356 6.26841 19.4977V2.6539C6.26638 2.63874 6.26776 2.6233 6.27245 2.60879C6.27714 2.59428 6.285 2.58111 6.29541 2.57032C6.30583 2.55954 6.31851 2.55142 6.33245 2.54663C6.34639 2.54184 6.36122 2.54049 6.37574 2.54271H9.88568C9.92205 2.54804 9.9591 2.54449 9.99393 2.53235C10.0288 2.5202 10.0604 2.49978 10.0864 2.47271C10.1123 2.44563 10.1319 2.41264 10.1436 2.37633C10.1552 2.34002 10.1586 2.30138 10.1535 2.26347V0.503088C10.1586 0.465172 10.1552 0.426535 10.1436 0.390223C10.1319 0.353912 10.1123 0.320918 10.0864 0.293843C10.0604 0.266769 10.0288 0.246353 9.99393 0.234206C9.9591 0.222059 9.92205 0.218512 9.88568 0.223846Z" fill="white"/>
<path d="M34.0931 0.223787H32.0568C32.0204 0.218377 31.9833 0.22187 31.9485 0.233989C31.9136 0.246109 31.882 0.266523 31.856 0.293616C31.83 0.320708 31.8104 0.353735 31.7988 0.390082C31.7872 0.42643 31.7838 0.465099 31.789 0.503029V14.7491C31.8234 15.5139 31.5955 16.2666 31.146 16.8722C30.9508 17.1349 30.6983 17.3453 30.4096 17.4862C30.1209 17.627 29.8042 17.6942 29.4856 17.6822C29.1674 17.6904 28.8517 17.6215 28.5634 17.4808C28.2751 17.3402 28.0221 17.1317 27.8242 16.8718C27.3913 16.2588 27.1739 15.5091 27.2085 14.7487V0.503029C27.2136 0.465113 27.2102 0.426476 27.1985 0.390165C27.1869 0.353853 27.1673 0.32086 27.1413 0.293785C27.1154 0.26671 27.0837 0.246294 27.0489 0.234147C27.0141 0.222 26.977 0.218454 26.9407 0.223787H24.9044C24.868 0.218454 24.831 0.222 24.7962 0.234147C24.7613 0.246294 24.7297 0.26671 24.7037 0.293785C24.6778 0.32086 24.6582 0.353853 24.6465 0.390165C24.6349 0.426476 24.6315 0.465113 24.6366 0.503029V14.4687C24.6366 16.1262 25.0737 17.467 25.9481 18.4911C26.3991 18.9929 26.9486 19.3875 27.559 19.6481C28.1694 19.9086 28.8266 20.029 29.4856 20.001C30.1443 20.0289 30.8011 19.9087 31.4113 19.6484C32.0215 19.3881 32.5707 18.9939 33.0218 18.4926C33.9141 17.4677 34.3604 16.1264 34.3609 14.4687V0.503029C34.366 0.465113 34.3626 0.426476 34.3509 0.390165C34.3393 0.353853 34.3197 0.32086 34.2937 0.293785C34.2678 0.26671 34.2361 0.246294 34.2013 0.234147C34.1665 0.222 34.1294 0.218454 34.0931 0.223787Z" fill="white"/>
</g>
</svg>
